<svg width="17" height="16" viewBox="0 0 17 16" fill="none" xmlns="http://www.w3.org/2000/svg">
<path fill-rule="evenodd" clip-rule="evenodd" d="M1.50232 5.05933C1.50232 2.85019 3.29318 1.05933 5.50232 1.05933H11.5023C13.7115 1.05933 15.5023 2.85019 15.5023 5.05933V11.0593C15.5023 13.2685 13.7115 15.0593 11.5023 15.0593H5.50232C3.29318 15.0593 1.50232 13.2685 1.50232 11.0593V5.05933ZM8.5531 7.70421V9.43696L9.77506 10.4284L13.0033 7.55712V5.8479L9.73394 8.59265L8.5531 7.70421ZM10.9179 12.1408C10.6212 12.585 5.22812 13.5087 4.27346 9.77552C3.34523 6.14233 4.86387 3.54468 7.73079 3.54468C10.5977 3.54468 11.0001 5.33921 11.0001 5.33921C11.0001 5.33921 11.1911 6.18352 10.0513 6.4424C8.95424 6.68594 8.83701 5.7573 8.73545 4.95278C8.73151 4.92153 8.72759 4.89048 8.72364 4.85969C8.61789 4.03597 7.64854 4.18306 7.64854 4.18306C5.75097 4.35074 6.08878 7.89862 6.08878 7.89862C6.63807 13.3469 10.9179 11.5083 10.9179 11.5083V12.1408Z" fill="#59B96B"/>
</svg>
