<svg width="17" height="16" viewBox="0 0 17 16" fill="none" xmlns="http://www.w3.org/2000/svg">
<g clip-path="url(#clip0_21216_104569)">
<path d="M3.93064 10.704C4.55553 9.71362 5.22254 8.75017 5.8727 7.77661C6.17589 7.97536 6.47739 8.17749 6.78057 8.37793C6.14051 9.35485 5.51562 10.3419 4.85366 11.3037C4.54206 11.1116 4.2355 10.9095 3.93064 10.704Z" fill="#59B96B"/>
<path d="M12.8729 8.44059C13.1373 8.18962 13.4068 7.94538 13.6814 7.70789C14.4697 8.57197 15.2411 9.44783 16.0024 10.3338C15.7279 10.578 15.455 10.8223 15.1805 11.0631C14.4175 10.1822 13.6275 9.32656 12.8729 8.44059Z" fill="#59B96B"/>
<path d="M9.22798 8.92877C9.76697 8.87487 10.3262 8.54642 10.8568 8.79065C11.4463 9.05341 12.1032 8.99446 12.7281 8.93213C13.3782 9.66988 14.0301 10.4093 14.6718 11.1555C14.2861 11.4401 13.8448 11.7972 13.3311 11.6945C12.435 11.1488 11.5878 10.5239 10.7018 9.96296C10.3801 9.72378 9.95899 9.84337 9.59012 9.85348C9.17408 9.8299 9.00228 10.2611 8.70751 10.47C8.40938 10.6586 8.04893 10.5542 7.72216 10.539C8.03377 9.8838 8.37233 8.95235 9.22798 8.92877Z" fill="#59B96B"/>
<path d="M5.32699 11.356C5.8744 10.5459 6.40835 9.72726 6.95576 8.91708C7.28253 9.04509 7.61435 9.16131 7.94953 9.26574C7.70698 9.72726 7.05514 10.1972 7.38359 10.7564C8.07586 11.26 9.05784 10.9872 9.49746 10.2848C9.86465 10.2966 10.2857 10.1534 10.6007 10.4061C11.5002 11.0124 12.4148 11.5969 13.3024 12.2167C13.6578 12.4121 13.3816 13.0353 12.9841 12.8315C12.179 12.402 11.5018 11.7485 10.6512 11.4032C10.658 11.5093 10.6748 11.7182 10.6816 11.8243C11.3317 12.3043 12.0611 12.6783 12.6843 13.1954C12.91 13.4463 12.6253 13.8489 12.3036 13.7394C11.6349 13.4025 11.0622 12.9023 10.4003 12.5486C10.37 12.6412 10.3127 12.8231 10.2824 12.9141C10.7355 13.2964 11.2829 13.5508 11.7343 13.9365C11.9887 14.1538 11.698 14.5445 11.4698 14.5445C10.9073 14.3424 10.2824 13.7057 9.88991 13.7057C9.78655 14.0568 10.2617 14.3271 10.5329 14.4382C10.92 14.6563 10.9259 15.0115 10.6327 15.1458C10.2217 15.257 9.93034 14.9067 9.60526 14.7264C9.95223 14.2565 9.82254 13.5844 9.20775 13.4396C9.12185 13.0488 8.90288 12.7288 8.49358 12.6429C8.39589 12.0854 7.91753 11.7199 7.34822 11.8192C7.1343 11.6137 6.90523 11.3442 6.57173 11.3914C6.20959 11.4301 6.00241 11.7636 5.7565 11.9894C5.61164 11.7788 5.46679 11.5683 5.32699 11.356Z" fill="#59B96B"/>
<path d="M7.39525 12.4284C7.51309 12.2845 7.72529 12.2634 7.86921 12.3812C8.01313 12.4991 8.03428 12.7113 7.91644 12.8552L7.00727 13.9656C6.88943 14.1095 6.67722 14.1306 6.5333 14.0128C6.38938 13.895 6.36824 13.6828 6.48608 13.5388L7.39525 12.4284Z" fill="#59B96B"/>
<path d="M8.24666 13.2098C8.34726 13.0893 8.52651 13.0731 8.64701 13.1737C8.76752 13.2743 8.78366 13.4536 8.68306 13.5741L7.93676 14.4681C7.83616 14.5886 7.65692 14.6047 7.53641 14.5041C7.4159 14.4035 7.39976 14.2243 7.50036 14.1038L8.24666 13.2098Z" fill="#59B96B"/>
<path d="M6.40796 11.9305C6.50856 11.81 6.6878 11.7938 6.80831 11.8944C6.92882 11.995 6.94495 12.1743 6.84436 12.2948L6.23505 13.0247C6.13445 13.1452 5.95521 13.1613 5.8347 13.0607C5.71419 12.9601 5.69805 12.7809 5.79865 12.6604L6.40796 11.9305Z" fill="#59B96B"/>
<path d="M8.97782 13.9697C9.06225 13.8686 9.21267 13.8551 9.31381 13.9395C9.41494 14.0239 9.42848 14.1743 9.34406 14.2755L8.75244 14.9842C8.66801 15.0853 8.51759 15.0988 8.41645 15.0144C8.31532 14.93 8.30178 14.7796 8.3862 14.6784L8.97782 13.9697Z" fill="#59B96B"/>
<path d="M5.60798 13.4447C5.17775 13.0638 5.05221 12.4004 5.11183 12.1093L3.18996 10.7499L5.63351 7.09514C5.87597 7.2696 6.31614 7.54026 6.68113 7.7647C6.91537 7.90874 7.11865 8.03373 7.21884 8.10205C7.39453 8.22184 7.36689 8.37136 7.34927 8.46668C7.34118 8.51042 7.33521 8.54274 7.35196 8.55555C7.59953 8.74487 8.19079 8.98371 8.517 8.71574C8.92477 8.38079 9.91506 8.11456 10.7452 8.39126C11.5753 8.66796 12.0704 8.62427 12.3762 8.39126C12.5107 8.28881 12.7056 8.05532 12.8942 7.82629V7.13892H14.6651L7.77047 0.833008L5.93612 2.49131V1.98948H4.18612V4.1714L1.00244 7.13892H2.71034V13.4447H5.60798Z" fill="#59B96B"/>
</g>
<defs>
<clipPath id="clip0_21216_104569">
<rect width="16" height="16" fill="white" transform="translate(0.502441)"/>
</clipPath>
</defs>
</svg>
