<svg width="17" height="16" viewBox="0 0 17 16" fill="none" xmlns="http://www.w3.org/2000/svg">
<path d="M14.9371 14.3249C14.8397 13.5787 14.6772 12.8434 14.55 12.1C14.4932 11.7583 14.2929 11.5478 13.9735 11.4467C13.6351 11.3374 13.2941 11.2362 12.9557 11.1296C12.3981 10.952 11.8405 10.7743 11.2829 10.5939C11.0961 10.5338 10.9472 10.6021 10.8254 10.7442C10.7929 10.7825 10.7659 10.8235 10.7334 10.8618C10.1541 11.5396 9.42329 11.8622 8.53545 11.802C7.74505 11.7474 7.10894 11.3975 6.62442 10.7634C6.45931 10.5502 6.37539 10.5228 6.11283 10.6076C5.24935 10.8809 4.38858 11.1597 3.52239 11.4248C3.15156 11.5369 2.95396 11.7829 2.88087 12.1546C2.73741 12.8899 2.59936 13.6251 2.51004 14.3686C2.46673 14.7239 2.60748 14.9207 2.96208 14.9754C4.14767 14.9754 5.33326 14.9727 6.52156 14.9727C7.81001 14.9727 9.10117 14.9727 10.3896 14.9727C10.4411 14.9727 10.4979 14.9508 10.5439 15H14.4418C14.4526 14.9918 14.4607 14.9781 14.4715 14.9781C14.8559 14.8961 14.9858 14.713 14.9371 14.3249ZM4.69716 6.25342C4.69445 6.37368 4.78107 6.42562 4.89205 6.43928C5.05446 6.45842 5.21687 6.44202 5.37657 6.43108C5.60395 6.41468 5.81779 6.44475 5.98561 6.61968C6.04245 6.67708 6.102 6.69895 6.1805 6.69075C6.24817 6.68528 6.31584 6.68255 6.38351 6.68255C8.02115 6.68255 9.65878 6.68255 11.2964 6.68255C11.3966 6.68255 11.4859 6.67161 11.5454 6.58141C11.6212 6.46935 11.7322 6.43382 11.8621 6.43655C12.1003 6.44202 12.3413 6.43655 12.5795 6.43928C12.6958 6.43928 12.7554 6.39282 12.7527 6.26982C12.75 6.16595 12.75 6.05935 12.7635 5.95549C12.8014 5.62749 12.75 5.32136 12.5659 5.0453C12.4766 4.90863 12.4306 4.76103 12.4062 4.6025C12.2438 3.55018 11.7268 2.70832 10.9148 2.04412C10.755 1.91293 10.7117 1.93206 10.6738 2.13432C10.5547 2.74385 10.4275 3.35338 10.2435 3.94924C10.1812 4.14604 10.1271 4.34284 10.0242 4.52323C10.1162 3.66224 10.2759 2.81492 10.349 1.95119C10.3869 1.50566 10.2732 1.29246 9.84826 1.16673C9.84014 1.164 9.82931 1.164 9.82119 1.16127C9.60735 1.08473 9.37456 1.06833 9.15802 1H8.26476C8.25123 1.03553 8.22145 1.0246 8.19709 1.03007C7.98867 1.07107 7.78024 1.10113 7.57723 1.16127C7.23075 1.2624 7.12248 1.40726 7.11977 1.77079C7.11436 2.42679 7.25782 3.06911 7.33361 3.71691C7.36339 3.97111 7.42023 4.21984 7.42023 4.4795C7.35256 4.31004 7.2903 4.14057 7.23346 3.97111C7.02503 3.33698 6.89511 2.68098 6.75706 2.02772C6.73811 1.94299 6.72187 1.91566 6.64066 1.97852C5.74741 2.67825 5.17897 3.57204 5.03822 4.72003C5.02468 4.82936 4.99762 4.92503 4.91641 5.0125C4.81626 5.1191 4.75941 5.25576 4.73235 5.40063C4.67821 5.68216 4.70257 5.96915 4.69716 6.25342ZM11.7972 6.86841C11.6537 7.01054 11.4859 7.05154 11.291 7.05154C9.62359 7.04881 7.95348 7.04881 6.28607 7.05154C6.04516 7.05154 5.81779 7.04881 5.64184 6.84928C5.59853 6.80008 5.52545 6.78095 5.45507 6.81648C5.38469 6.85201 5.36845 6.90941 5.36574 6.98594C5.35762 7.26474 5.40905 7.53807 5.46048 7.80867C5.53357 8.18313 5.67703 8.51933 5.95854 8.78719C5.99914 8.82546 6.02351 8.87466 6.04245 8.92659C6.33479 9.82312 6.91676 10.4818 7.69633 10.9738C8.01844 11.1788 8.36762 11.2991 8.77906 11.3073C8.93064 11.2964 9.112 11.2854 9.28253 11.2171C10.322 10.7989 11.0447 10.0636 11.4263 8.99493C11.4561 8.90746 11.4967 8.83366 11.5644 8.76533C11.7241 8.60133 11.8432 8.41273 11.9271 8.1968C12.0679 7.83327 12.0922 7.44514 12.1409 7.06521C12.1545 6.96134 12.1572 6.87388 12.057 6.81921C11.9596 6.76728 11.8676 6.79735 11.7972 6.86841Z" fill="#59B96B"/>
</svg>
