<svg width="17" height="16" viewBox="0 0 17 16" fill="none" xmlns="http://www.w3.org/2000/svg">
<path fill-rule="evenodd" clip-rule="evenodd" d="M6.14848 12.3531C6.10192 12.3067 6.06497 12.2515 6.03977 12.1908C6.01456 12.1301 6.00159 12.0649 6.00159 11.9992C6.00159 11.9334 6.01456 11.8683 6.03977 11.8076C6.06497 11.7469 6.10192 11.6917 6.14848 11.6453L9.79548 7.99987L6.14848 4.35449C6.05459 4.26062 6.00185 4.1333 6.00185 4.00055C6.00185 3.86779 6.05459 3.74048 6.14848 3.64661C6.24237 3.55274 6.36971 3.5 6.50248 3.5C6.63526 3.5 6.76259 3.55274 6.85648 3.64661L10.8565 7.64593C10.903 7.69237 10.94 7.74753 10.9652 7.80827C10.9904 7.869 11.0034 7.93411 11.0034 7.99987C11.0034 8.06562 10.9904 8.13073 10.9652 8.19147C10.94 8.2522 10.903 8.30737 10.8565 8.35381L6.85648 12.3531C6.81004 12.3997 6.75486 12.4366 6.69411 12.4618C6.63337 12.487 6.56825 12.5 6.50248 12.5C6.43671 12.5 6.37159 12.487 6.31085 12.4618C6.2501 12.4366 6.19493 12.3997 6.14848 12.3531Z" fill="#989898"/>
</svg>
