<svg width="93" height="103" viewBox="0 0 93 103" fill="none" xmlns="http://www.w3.org/2000/svg">
<path d="M52.8776 28.2412C52.6729 28.2412 52.4638 28.2162 52.2567 28.1641L35.5034 23.8459C34.211 23.5027 33.4407 22.216 33.7788 20.973L35.6204 14.1753C35.7331 13.7581 36.1763 13.5047 36.6117 13.6164C37.0451 13.7249 37.3062 14.1524 37.1925 14.5705L35.3507 21.3694C35.237 21.7885 35.4959 22.2212 35.9293 22.3359L52.6729 26.6521C53.1029 26.7615 53.5471 26.5153 53.6598 26.1035L54.2317 23.8823C54.3402 23.4632 54.78 23.2087 55.2154 23.311C55.651 23.4153 55.9164 23.8386 55.8091 24.2577L55.235 26.4894C54.9456 27.5456 53.9577 28.2412 52.8776 28.2412Z" fill="#00688F"/>
<path d="M57.2616 21.9845H40.4693C39.1249 21.9845 38.0317 20.9322 38.0317 19.6383V7.64628C38.0317 6.3523 39.1249 5.30005 40.4693 5.30005H57.2616C58.606 5.30005 59.6992 6.3523 59.6992 7.64628V19.6383C59.6992 20.9322 58.606 21.9845 57.2616 21.9845ZM40.4693 6.8642C40.0207 6.8642 39.6567 7.21457 39.6567 7.64628V19.6383C39.6567 20.07 40.0207 20.4203 40.4693 20.4203H57.2616C57.7101 20.4203 58.0742 20.07 58.0742 19.6383V7.64628C58.0742 7.21457 57.7101 6.8642 57.2616 6.8642H40.4693Z" fill="#00688F"/>
<path d="M43.4489 12.5996C42.2539 12.5996 41.2821 11.6642 41.2821 10.514C41.2821 9.36381 42.2539 8.42841 43.4489 8.42841C44.6439 8.42841 45.6155 9.36381 45.6155 10.514C45.6155 11.6642 44.6439 12.5996 43.4489 12.5996ZM43.4489 9.99257C43.1498 9.99257 42.9072 10.2263 42.9072 10.514C42.9072 10.8018 43.1498 11.0355 43.4489 11.0355C43.7479 11.0355 43.9905 10.8018 43.9905 10.514C43.9905 10.2263 43.7479 9.99257 43.4489 9.99257Z" fill="#00688F"/>
<path d="M38.8659 20.9208C38.658 20.9208 38.4499 20.8446 38.2918 20.6915C37.9744 20.386 37.9744 19.8905 38.2918 19.585L43.1886 14.8717C43.9297 14.1584 45.1354 14.1584 45.8754 14.8717L47.1852 16.1325L51.2088 11.4838C51.5684 11.0687 52.0961 10.8288 52.6563 10.8258C53.2586 10.7935 53.7462 11.0572 54.109 11.4672L59.5021 17.5235C59.7945 17.8509 59.7544 18.3453 59.4142 18.6267C59.073 18.9083 58.5606 18.8698 58.268 18.5423L52.8729 12.4839C52.8013 12.4014 52.7136 12.4056 52.6648 12.3909C52.6184 12.3909 52.5284 12.4045 52.4569 12.4858L47.8634 17.7937C47.717 17.9624 47.5038 18.0648 47.2763 18.0741C47.0444 18.0866 46.8256 18.001 46.6651 17.8458L44.726 15.9792C44.5883 15.8467 44.4747 15.8467 44.337 15.9792L39.4402 20.6915C39.2819 20.8446 39.074 20.9208 38.8659 20.9208Z" fill="#00688F"/>
<path fill-rule="evenodd" clip-rule="evenodd" d="M33.7597 21.048C33.7029 21.2887 33.6871 21.5303 33.7081 21.7657C33.7935 22.7225 34.487 23.576 35.5034 23.8459L52.2567 28.1641C52.265 28.1662 52.2732 28.1682 52.2815 28.1702C52.2831 28.1706 52.2847 28.171 52.2864 28.1714C52.4837 28.2185 52.6826 28.2412 52.8776 28.2412C53.9434 28.2412 54.9194 27.564 55.2232 26.5312C55.2254 26.5234 55.2277 26.5156 55.2299 26.5078C55.2316 26.5017 55.2334 26.4955 55.235 26.4894L55.8091 24.2577C55.8692 24.023 55.8124 23.7869 55.6743 23.6064C55.5658 23.4645 55.407 23.3569 55.2154 23.311C54.8868 23.2338 54.5558 23.3598 54.3664 23.6064C54.3106 23.6791 54.2671 23.7623 54.2396 23.854C54.2394 23.8545 54.2393 23.8551 54.2391 23.8557C54.2365 23.8645 54.234 23.8734 54.2317 23.8823L53.6598 26.1035C53.565 26.4499 53.2357 26.6791 52.8776 26.678C52.8099 26.6779 52.7412 26.6694 52.6729 26.6521L35.9293 22.3359C35.9215 22.3339 35.9137 22.3317 35.906 22.3294C35.9024 22.3283 35.8987 22.3272 35.8951 22.3261C35.5665 22.2243 35.346 21.9368 35.3255 21.618C35.3211 21.5497 35.3259 21.4799 35.3408 21.4102C35.3416 21.4063 35.3425 21.4024 35.3434 21.3985C35.3432 21.399 35.3435 21.398 35.3434 21.3985C35.3455 21.3893 35.3482 21.3786 35.3507 21.3694L37.1925 14.5705C37.3062 14.1524 37.0451 13.7249 36.6117 13.6164C36.5442 13.5991 36.4764 13.5905 36.4098 13.59C36.0571 13.5873 35.7345 13.8096 35.6291 14.1455C35.629 14.146 35.6293 14.1451 35.6291 14.1455C35.6262 14.1549 35.623 14.1657 35.6204 14.1753L33.7788 20.973C33.772 20.998 33.7656 21.023 33.7597 21.048ZM38.0317 19.6383C38.0317 19.7673 38.0425 19.894 38.0635 20.0174C38.0269 20.2441 38.0939 20.4834 38.2647 20.6642C38.2731 20.6731 38.2829 20.6829 38.2918 20.6915C38.2916 20.691 38.2921 20.692 38.2918 20.6915C38.4344 20.9634 38.6299 21.2056 38.8659 21.4043C38.8738 21.411 38.8818 21.4176 38.8899 21.4242C39.3053 21.7651 39.8408 21.9743 40.426 21.9841C40.4404 21.9844 40.4548 21.9845 40.4693 21.9845H57.2616C58.3542 21.9845 59.2808 21.2896 59.5897 20.3347C59.6163 20.2523 59.6383 20.1681 59.6555 20.0821C59.6842 19.9384 59.6992 19.79 59.6992 19.6383V7.64628C59.6992 7.49458 59.6842 7.34618 59.6555 7.20243C59.4394 6.12002 58.4484 5.30005 57.2616 5.30005H40.4693C39.2825 5.30005 38.2914 6.12005 38.0754 7.20247C38.0467 7.34621 38.0317 7.49459 38.0317 7.64628V19.6383ZM39.6567 18.2713L43.1886 14.8717C43.2029 14.858 43.2174 14.8445 43.2321 14.8312C43.232 14.8313 43.2321 14.8312 43.2321 14.8312C43.9613 14.1722 45.1031 14.172 45.8314 14.8307C45.8314 14.8307 45.8314 14.8307 45.8314 14.8307C45.8462 14.8441 45.8609 14.8578 45.8754 14.8717L47.1852 16.1325L51.2088 11.4838C51.2217 11.4689 51.2348 11.4542 51.2482 11.4397C51.2508 11.4369 51.2534 11.4341 51.2559 11.4314C51.6137 11.0485 52.1201 10.8287 52.6563 10.8258C52.6592 10.8256 52.662 10.8255 52.6648 10.8254C52.8267 10.8174 52.9802 10.8309 53.1252 10.8628C53.4957 10.9444 53.8107 11.1466 54.0668 11.4207C54.0714 11.4256 54.0759 11.4306 54.0805 11.4355C54.0901 11.446 54.0996 11.4565 54.109 11.4672L58.0742 15.9199V7.64628C58.0742 7.60271 58.0704 7.55997 58.0633 7.51834C57.9998 7.14742 57.6649 6.8642 57.2616 6.8642H40.4693C40.066 6.8642 39.731 7.14744 39.6676 7.51838C39.6604 7.56 39.6567 7.60273 39.6567 7.64628V18.2713ZM42.9418 8.48607C42.1221 8.6759 41.4826 9.3153 41.3215 10.1171C41.2957 10.2456 41.2821 10.3783 41.2821 10.514C41.2821 10.6497 41.2957 10.7824 41.3215 10.911C41.5145 11.8719 42.3949 12.5996 43.4489 12.5996C44.5026 12.5996 45.3827 11.8723 45.576 10.9118C45.602 10.783 45.6155 10.65 45.6155 10.514C45.6155 10.378 45.602 10.245 45.576 10.1162C45.4147 9.31486 44.7754 8.67584 43.9561 8.48607C43.7934 8.44838 43.6235 8.42841 43.4489 8.42841C43.2743 8.42841 43.1045 8.44838 42.9418 8.48607ZM58.0742 18.3246L52.8729 12.4839C52.8308 12.4354 52.7831 12.4168 52.741 12.4068C52.7277 12.4036 52.7149 12.4013 52.703 12.3991C52.6887 12.3966 52.6758 12.3942 52.6648 12.3909C52.6184 12.3909 52.5284 12.4045 52.4569 12.4858L47.8634 17.7937C47.717 17.9624 47.5038 18.0648 47.2763 18.0741C47.0444 18.0866 46.8256 18.001 46.6651 17.8458L44.726 15.9792C44.5883 15.8467 44.4747 15.8467 44.337 15.9792L39.9284 20.2217C39.9355 20.2279 39.9428 20.2339 39.9502 20.2399C40.091 20.3526 40.272 20.4203 40.4693 20.4203H57.2616C57.4816 20.4203 57.6813 20.3361 57.8276 20.1993C57.9495 20.0853 58.0345 19.9348 58.0633 19.7662C58.0704 19.7246 58.0742 19.6818 58.0742 19.6383V18.3246ZM43.9841 10.5941C43.9441 10.8439 43.7196 11.0355 43.4489 11.0355C43.178 11.0355 42.9535 10.8438 42.9135 10.594C42.9072 10.5666 42.904 10.5397 42.904 10.514C42.904 10.4883 42.9072 10.4614 42.9135 10.4341C42.9535 10.1842 43.178 9.99257 43.4489 9.99257C43.7196 9.99257 43.9441 10.1841 43.9841 10.4339C43.9905 10.4613 43.9937 10.4883 43.9937 10.514C43.9937 10.5398 43.9905 10.5667 43.9841 10.5941Z" fill="#00688F"/>
<path d="M28.1605 54.626C27.1525 54.626 26.2939 54.4207 25.5845 54.01C24.8752 53.5993 24.3292 53.016 23.9465 52.26C23.5732 51.4947 23.3865 50.594 23.3865 49.558C23.3865 48.522 23.5732 47.626 23.9465 46.87C24.3292 46.114 24.8752 45.5307 25.5845 45.12C26.2939 44.7093 27.1525 44.504 28.1605 44.504C28.8605 44.504 29.4859 44.6067 30.0365 44.812C30.5872 45.0173 31.0679 45.316 31.4785 45.708L30.9745 46.87C30.5265 46.4873 30.0879 46.212 29.6585 46.044C29.2385 45.876 28.7485 45.792 28.1885 45.792C27.1245 45.792 26.3125 46.1187 25.7525 46.772C25.1925 47.4253 24.9125 48.354 24.9125 49.558C24.9125 50.762 25.1925 51.6953 25.7525 52.358C26.3125 53.0113 27.1245 53.338 28.1885 53.338C28.7485 53.338 29.2385 53.254 29.6585 53.086C30.0879 52.918 30.5265 52.638 30.9745 52.246L31.4785 53.408C31.0679 53.8 30.5872 54.1033 30.0365 54.318C29.4859 54.5233 28.8605 54.626 28.1605 54.626ZM33.1805 54.5V44.196H34.5945V54.5H33.1805ZM36.6669 54.5V47.444H38.0809V54.5H36.6669ZM36.5549 45.974V44.504H38.1929V45.974H36.5549ZM43.2472 54.626C42.5379 54.626 41.9172 54.4813 41.3852 54.192C40.8625 53.8933 40.4565 53.4687 40.1672 52.918C39.8872 52.358 39.7472 51.6953 39.7472 50.93C39.7472 50.174 39.8919 49.5253 40.1812 48.984C40.4705 48.4427 40.8765 48.032 41.3992 47.752C41.9219 47.4627 42.5379 47.318 43.2472 47.318C43.7045 47.318 44.1479 47.3973 44.5772 47.556C45.0065 47.7053 45.3612 47.92 45.6412 48.2L45.1792 49.194C44.9179 48.942 44.6239 48.7553 44.2972 48.634C43.9705 48.5033 43.6532 48.438 43.3452 48.438C42.6732 48.438 42.1459 48.6527 41.7632 49.082C41.3805 49.5113 41.1892 50.132 41.1892 50.944C41.1892 51.7653 41.3805 52.3953 41.7632 52.834C42.1459 53.2727 42.6732 53.492 43.3452 53.492C43.6439 53.492 43.9565 53.436 44.2832 53.324C44.6099 53.2027 44.9085 53.0113 45.1792 52.75L45.6412 53.744C45.3519 54.024 44.9879 54.2433 44.5492 54.402C44.1199 54.5513 43.6859 54.626 43.2472 54.626ZM47.1395 54.5V44.196H48.5535V50.524H48.5815L51.6615 47.444H53.4115L49.6875 51.154L49.7015 50.524L53.7195 54.5H51.9275L48.5815 51.266H48.5535V54.5H47.1395ZM61.0671 54.626C60.3018 54.626 59.7231 54.4207 59.3311 54.01C58.9391 53.59 58.7431 52.9647 58.7431 52.134V48.536H57.3711V47.444H58.7431V45.582L60.1571 45.204V47.444H62.1171V48.536H60.1571V52.008C60.1571 52.5307 60.2504 52.904 60.4371 53.128C60.6238 53.352 60.8944 53.464 61.2491 53.464C61.4264 53.464 61.5804 53.45 61.7111 53.422C61.8511 53.3847 61.9771 53.3427 62.0891 53.296V54.444C61.9491 54.5 61.7858 54.542 61.5991 54.57C61.4124 54.6073 61.2351 54.626 61.0671 54.626ZM66.3647 54.626C65.6647 54.626 65.058 54.4813 64.5447 54.192C64.0314 53.8933 63.6347 53.4733 63.3547 52.932C63.0747 52.3813 62.9347 51.728 62.9347 50.972C62.9347 50.216 63.0747 49.5673 63.3547 49.026C63.6347 48.4753 64.0314 48.0553 64.5447 47.766C65.058 47.4673 65.6647 47.318 66.3647 47.318C67.0647 47.318 67.6714 47.4673 68.1847 47.766C68.7074 48.0553 69.1087 48.4753 69.3887 49.026C69.678 49.5673 69.8227 50.216 69.8227 50.972C69.8227 51.728 69.678 52.3813 69.3887 52.932C69.1087 53.4733 68.7074 53.8933 68.1847 54.192C67.6714 54.4813 67.0647 54.626 66.3647 54.626ZM66.3647 53.52C66.9807 53.52 67.4707 53.3053 67.8347 52.876C68.1987 52.4467 68.3807 51.812 68.3807 50.972C68.3807 50.132 68.1987 49.502 67.8347 49.082C67.4707 48.6527 66.9807 48.438 66.3647 48.438C65.758 48.438 65.2727 48.6527 64.9087 49.082C64.5447 49.502 64.3627 50.132 64.3627 50.972C64.3627 51.812 64.54 52.4467 64.8947 52.876C65.2587 53.3053 65.7487 53.52 66.3647 53.52ZM5.57127 72.626C4.19927 72.626 3.17727 72.2807 2.50527 71.59C1.84261 70.8993 1.51127 69.8773 1.51127 68.524V62.63H2.96727V68.496C2.96727 69.448 3.17261 70.1667 3.58327 70.652C4.00327 71.128 4.66594 71.366 5.57127 71.366C6.42994 71.366 7.07861 71.128 7.51727 70.652C7.95594 70.1667 8.17527 69.448 8.17527 68.496V62.63H9.60327V68.524C9.60327 69.8773 9.26261 70.8993 8.58127 71.59C7.89994 72.2807 6.89661 72.626 5.57127 72.626ZM11.7362 75.524V67.138C11.7362 66.8673 11.7222 66.592 11.6942 66.312C11.6755 66.0227 11.6522 65.7333 11.6242 65.444H12.9962L13.1362 67.04H12.9822C13.1315 66.508 13.4302 66.088 13.8782 65.78C14.3355 65.472 14.8769 65.318 15.5022 65.318C16.1275 65.318 16.6735 65.4673 17.1402 65.766C17.6069 66.0553 17.9662 66.4707 18.2182 67.012C18.4795 67.5533 18.6102 68.2067 18.6102 68.972C18.6102 69.728 18.4795 70.3813 18.2182 70.932C17.9662 71.4827 17.6069 71.9027 17.1402 72.192C16.6735 72.4813 16.1275 72.626 15.5022 72.626C14.8862 72.626 14.3495 72.4767 13.8922 72.178C13.4442 71.87 13.1455 71.4547 12.9962 70.932H13.1502V75.524H11.7362ZM15.1522 71.52C15.7682 71.52 16.2582 71.3053 16.6222 70.876C16.9955 70.4467 17.1822 69.812 17.1822 68.972C17.1822 68.132 16.9955 67.502 16.6222 67.082C16.2582 66.6527 15.7682 66.438 15.1522 66.438C14.5362 66.438 14.0415 66.6527 13.6682 67.082C13.3042 67.502 13.1222 68.132 13.1222 68.972C13.1222 69.812 13.3042 70.4467 13.6682 70.876C14.0415 71.3053 14.5362 71.52 15.1522 71.52ZM20.2674 72.5V62.196H21.6814V72.5H20.2674ZM26.7778 72.626C26.0778 72.626 25.4711 72.4813 24.9578 72.192C24.4444 71.8933 24.0478 71.4733 23.7678 70.932C23.4878 70.3813 23.3478 69.728 23.3478 68.972C23.3478 68.216 23.4878 67.5673 23.7678 67.026C24.0478 66.4753 24.4444 66.0553 24.9578 65.766C25.4711 65.4673 26.0778 65.318 26.7778 65.318C27.4778 65.318 28.0844 65.4673 28.5978 65.766C29.1204 66.0553 29.5218 66.4753 29.8018 67.026C30.0911 67.5673 30.2358 68.216 30.2358 68.972C30.2358 69.728 30.0911 70.3813 29.8018 70.932C29.5218 71.4733 29.1204 71.8933 28.5978 72.192C28.0844 72.4813 27.4778 72.626 26.7778 72.626ZM26.7778 71.52C27.3938 71.52 27.8838 71.3053 28.2478 70.876C28.6118 70.4467 28.7938 69.812 28.7938 68.972C28.7938 68.132 28.6118 67.502 28.2478 67.082C27.8838 66.6527 27.3938 66.438 26.7778 66.438C26.1711 66.438 25.6858 66.6527 25.3218 67.082C24.9578 67.502 24.7758 68.132 24.7758 68.972C24.7758 69.812 24.9531 70.4467 25.3078 70.876C25.6718 71.3053 26.1618 71.52 26.7778 71.52ZM34.5905 72.626C33.9652 72.626 33.4192 72.4813 32.9525 72.192C32.4859 71.9027 32.1219 71.4827 31.8605 70.932C31.6085 70.3813 31.4825 69.728 31.4825 68.972C31.4825 68.2067 31.6085 67.5533 31.8605 67.012C32.1219 66.4707 32.4859 66.0553 32.9525 65.766C33.4192 65.4673 33.9652 65.318 34.5905 65.318C35.2065 65.318 35.7432 65.472 36.2005 65.78C36.6579 66.088 36.9612 66.508 37.1105 67.04H36.9565L37.0965 65.444H38.4685C38.4405 65.7333 38.4125 66.0227 38.3845 66.312C38.3659 66.592 38.3565 66.8673 38.3565 67.138V72.5H36.9425V70.932H37.0965C36.9472 71.4547 36.6392 71.87 36.1725 72.178C35.7152 72.4767 35.1879 72.626 34.5905 72.626ZM34.9405 71.52C35.5472 71.52 36.0325 71.3053 36.3965 70.876C36.7699 70.4467 36.9565 69.812 36.9565 68.972C36.9565 68.132 36.7699 67.502 36.3965 67.082C36.0325 66.6527 35.5472 66.438 34.9405 66.438C34.3245 66.438 33.8299 66.6527 33.4565 67.082C33.0925 67.502 32.9105 68.132 32.9105 68.972C32.9105 69.812 33.0925 70.4467 33.4565 70.876C33.8205 71.3053 34.3152 71.52 34.9405 71.52ZM43.1218 72.626C42.5058 72.626 41.9598 72.4813 41.4838 72.192C41.0171 71.9027 40.6531 71.4827 40.3918 70.932C40.1398 70.3813 40.0138 69.728 40.0138 68.972C40.0138 68.2067 40.1398 67.5533 40.3918 67.012C40.6531 66.4707 41.0171 66.0553 41.4838 65.766C41.9598 65.4673 42.5058 65.318 43.1218 65.318C43.7285 65.318 44.2605 65.472 44.7178 65.78C45.1845 66.0787 45.4925 66.4893 45.6418 67.012H45.4738V62.196H46.8878V72.5H45.4878V70.904H45.6558C45.4971 71.436 45.1891 71.856 44.7318 72.164C44.2745 72.472 43.7378 72.626 43.1218 72.626ZM43.4718 71.52C44.0785 71.52 44.5685 71.3053 44.9418 70.876C45.3151 70.4467 45.5018 69.812 45.5018 68.972C45.5018 68.132 45.3151 67.502 44.9418 67.082C44.5685 66.6527 44.0785 66.438 43.4718 66.438C42.8558 66.438 42.3611 66.6527 41.9878 67.082C41.6238 67.502 41.4418 68.132 41.4418 68.972C41.4418 69.812 41.6238 70.4467 41.9878 70.876C42.3611 71.3053 42.8558 71.52 43.4718 71.52ZM52.8095 72.5V62.63H54.2655V72.5H52.8095ZM56.4569 72.5V67.138C56.4569 66.8673 56.4429 66.592 56.4149 66.312C56.3962 66.0227 56.3729 65.7333 56.3449 65.444H57.7169L57.8429 66.928H57.6749C57.8709 66.4147 58.1696 66.018 58.5709 65.738C58.9816 65.458 59.4716 65.318 60.0409 65.318C60.6196 65.318 61.0909 65.458 61.4549 65.738C61.8282 66.0087 62.0849 66.4287 62.2249 66.998H62.0009C62.1876 66.4847 62.5049 66.0787 62.9529 65.78C63.4009 65.472 63.9189 65.318 64.5069 65.318C65.2909 65.318 65.8789 65.5467 66.2709 66.004C66.6629 66.4613 66.8589 67.1707 66.8589 68.132V72.5H65.4449V68.202C65.4449 67.586 65.3376 67.1427 65.1229 66.872C64.9176 66.592 64.5816 66.452 64.1149 66.452C63.5736 66.452 63.1442 66.6387 62.8269 67.012C62.5096 67.3853 62.3509 67.8893 62.3509 68.524V72.5H60.9369V68.202C60.9369 67.586 60.8296 67.1427 60.6149 66.872C60.4096 66.592 60.0736 66.452 59.6069 66.452C59.0656 66.452 58.6409 66.6387 58.3329 67.012C58.0249 67.3853 57.8709 67.8893 57.8709 68.524V72.5H56.4569ZM71.5866 72.626C70.9613 72.626 70.4153 72.4813 69.9486 72.192C69.482 71.9027 69.118 71.4827 68.8566 70.932C68.6046 70.3813 68.4786 69.728 68.4786 68.972C68.4786 68.2067 68.6046 67.5533 68.8566 67.012C69.118 66.4707 69.482 66.0553 69.9486 65.766C70.4153 65.4673 70.9613 65.318 71.5866 65.318C72.2026 65.318 72.7393 65.472 73.1966 65.78C73.654 66.088 73.9573 66.508 74.1066 67.04H73.9526L74.0926 65.444H75.4646C75.4366 65.7333 75.4086 66.0227 75.3806 66.312C75.362 66.592 75.3526 66.8673 75.3526 67.138V72.5H73.9386V70.932H74.0926C73.9433 71.4547 73.6353 71.87 73.1686 72.178C72.7113 72.4767 72.184 72.626 71.5866 72.626ZM71.9366 71.52C72.5433 71.52 73.0286 71.3053 73.3926 70.876C73.766 70.4467 73.9526 69.812 73.9526 68.972C73.9526 68.132 73.766 67.502 73.3926 67.082C73.0286 66.6527 72.5433 66.438 71.9366 66.438C71.3206 66.438 70.826 66.6527 70.4526 67.082C70.0886 67.502 69.9066 68.132 69.9066 68.972C69.9066 69.812 70.0886 70.4467 70.4526 70.876C70.8166 71.3053 71.3113 71.52 71.9366 71.52ZM80.5939 75.636C79.9592 75.636 79.3805 75.5613 78.8579 75.412C78.3445 75.2627 77.8825 75.0387 77.4719 74.74L77.8219 73.704C78.1112 73.9 78.3959 74.054 78.6759 74.166C78.9559 74.2873 79.2499 74.376 79.5579 74.432C79.8659 74.488 80.1832 74.516 80.5099 74.516C81.1819 74.516 81.6859 74.3433 82.0219 73.998C82.3672 73.662 82.5399 73.172 82.5399 72.528V70.638H82.6799C82.5305 71.1607 82.2225 71.576 81.7559 71.884C81.2985 72.1827 80.7665 72.332 80.1599 72.332C79.5159 72.332 78.9559 72.192 78.4799 71.912C78.0132 71.6227 77.6492 71.2167 77.3879 70.694C77.1359 70.162 77.0099 69.5367 77.0099 68.818C77.0099 68.0993 77.1359 67.4787 77.3879 66.956C77.6492 66.4333 78.0132 66.032 78.4799 65.752C78.9559 65.4627 79.5159 65.318 80.1599 65.318C80.7759 65.318 81.3079 65.472 81.7559 65.78C82.2132 66.0787 82.5165 66.4893 82.6659 67.012L82.5399 66.9L82.6659 65.444H84.0379C84.0006 65.7333 83.9725 66.0227 83.9539 66.312C83.9352 66.592 83.9259 66.8673 83.9259 67.138V72.36C83.9259 73.424 83.6412 74.236 83.0719 74.796C82.5119 75.356 81.6859 75.636 80.5939 75.636ZM80.4959 71.226C81.1119 71.226 81.6019 71.016 81.9659 70.596C82.3392 70.176 82.5259 69.5833 82.5259 68.818C82.5259 68.0527 82.3392 67.4647 81.9659 67.054C81.6019 66.6433 81.1119 66.438 80.4959 66.438C79.8612 66.438 79.3572 66.6433 78.9839 67.054C78.6199 67.4647 78.4379 68.0527 78.4379 68.818C78.4379 69.5833 78.6199 70.176 78.9839 70.596C79.3572 71.016 79.8612 71.226 80.4959 71.226ZM89.2501 72.626C88.1115 72.626 87.2155 72.304 86.5621 71.66C85.9088 71.016 85.5821 70.1247 85.5821 68.986C85.5821 68.2487 85.7221 67.6047 86.0021 67.054C86.2915 66.5033 86.6881 66.0787 87.1921 65.78C87.7055 65.472 88.2981 65.318 88.9701 65.318C89.6328 65.318 90.1881 65.458 90.6361 65.738C91.0841 66.018 91.4248 66.4147 91.6581 66.928C91.8915 67.432 92.0081 68.0293 92.0081 68.72V69.168H86.6881V68.356H91.0421L90.8041 68.538C90.8041 67.838 90.6455 67.2967 90.3281 66.914C90.0201 66.522 89.5721 66.326 88.9841 66.326C88.3308 66.326 87.8268 66.5547 87.4721 67.012C87.1175 67.46 86.9401 68.0807 86.9401 68.874V69.014C86.9401 69.8447 87.1408 70.47 87.5421 70.89C87.9528 71.31 88.5315 71.52 89.2781 71.52C89.6888 71.52 90.0715 71.464 90.4261 71.352C90.7901 71.2307 91.1355 71.0347 91.4621 70.764L91.9241 71.73C91.5975 72.0193 91.2008 72.2433 90.7341 72.402C90.2675 72.5513 89.7728 72.626 89.2501 72.626Z" fill="#00688F"/>
<path d="M11.2386 98.5V97.282H13.5346V89.862H14.2626L11.4626 91.57V90.17L13.9406 88.63H14.9906V97.282H17.1466V98.5H11.2386ZM19.1151 98.5V97.422L22.5031 93.88C22.9418 93.4227 23.2685 92.9933 23.4831 92.592C23.6978 92.1907 23.8051 91.7753 23.8051 91.346C23.8051 90.814 23.6371 90.4127 23.3011 90.142C22.9745 89.8713 22.4985 89.736 21.8731 89.736C21.3785 89.736 20.9118 89.8247 20.4731 90.002C20.0438 90.1793 19.6285 90.45 19.2271 90.814L18.7231 89.708C19.1151 89.344 19.6005 89.0547 20.1791 88.84C20.7671 88.616 21.3878 88.504 22.0411 88.504C23.0678 88.504 23.8565 88.7373 24.4071 89.204C24.9671 89.6707 25.2471 90.338 25.2471 91.206C25.2471 91.822 25.0978 92.4147 24.7991 92.984C24.5005 93.544 24.0525 94.1227 23.4551 94.72L20.5291 97.674V97.282H25.6531V98.5H19.1151ZM30.5477 98.626C29.409 98.626 28.5317 98.192 27.9157 97.324C27.309 96.4467 27.0057 95.1913 27.0057 93.558C27.0057 91.8967 27.309 90.6413 27.9157 89.792C28.5317 88.9333 29.409 88.504 30.5477 88.504C31.6957 88.504 32.573 88.9333 33.1797 89.792C33.7863 90.6413 34.0897 91.892 34.0897 93.544C34.0897 95.1867 33.7817 96.4467 33.1657 97.324C32.559 98.192 31.6863 98.626 30.5477 98.626ZM30.5477 97.408C31.2663 97.408 31.7983 97.0953 32.1437 96.47C32.4983 95.8447 32.6757 94.8693 32.6757 93.544C32.6757 92.2093 32.4983 91.2387 32.1437 90.632C31.7983 90.016 31.2663 89.708 30.5477 89.708C29.8383 89.708 29.3063 90.016 28.9517 90.632C28.597 91.2387 28.4197 92.2047 28.4197 93.53C28.4197 94.8647 28.597 95.8447 28.9517 96.47C29.3157 97.0953 29.8477 97.408 30.5477 97.408ZM34.7702 98.5L37.9762 94.524V95.196L34.9382 91.444H36.6322L38.7742 94.202H38.2702L40.4122 91.444H42.0922L39.0822 95.182V94.538L42.2742 98.5H40.5802L38.2702 95.546H38.7742L36.4502 98.5H34.7702ZM43.9964 98.5V97.282H46.2924V89.862H47.0204L44.2204 91.57V90.17L46.6984 88.63H47.7484V97.282H49.9044V98.5H43.9964ZM51.8729 98.5V97.422L55.2609 93.88C55.6996 93.4227 56.0263 92.9933 56.2409 92.592C56.4556 92.1907 56.5629 91.7753 56.5629 91.346C56.5629 90.814 56.3949 90.4127 56.0589 90.142C55.7323 89.8713 55.2563 89.736 54.6309 89.736C54.1363 89.736 53.6696 89.8247 53.2309 90.002C52.8016 90.1793 52.3863 90.45 51.9849 90.814L51.4809 89.708C51.8729 89.344 52.3583 89.0547 52.9369 88.84C53.5249 88.616 54.1456 88.504 54.7989 88.504C55.8256 88.504 56.6143 88.7373 57.1649 89.204C57.7249 89.6707 58.0049 90.338 58.0049 91.206C58.0049 91.822 57.8556 92.4147 57.5569 92.984C57.2583 93.544 56.8103 94.1227 56.2129 94.72L53.2869 97.674V97.282H58.4109V98.5H51.8729ZM63.3055 98.626C62.1668 98.626 61.2895 98.192 60.6735 97.324C60.0668 96.4467 59.7635 95.1913 59.7635 93.558C59.7635 91.8967 60.0668 90.6413 60.6735 89.792C61.2895 88.9333 62.1668 88.504 63.3055 88.504C64.4535 88.504 65.3308 88.9333 65.9375 89.792C66.5441 90.6413 66.8475 91.892 66.8475 93.544C66.8475 95.1867 66.5395 96.4467 65.9235 97.324C65.3168 98.192 64.4441 98.626 63.3055 98.626ZM63.3055 97.408C64.0241 97.408 64.5561 97.0953 64.9015 96.47C65.2561 95.8447 65.4335 94.8693 65.4335 93.544C65.4335 92.2093 65.2561 91.2387 64.9015 90.632C64.5561 90.016 64.0241 89.708 63.3055 89.708C62.5961 89.708 62.0641 90.016 61.7095 90.632C61.3548 91.2387 61.1775 92.2047 61.1775 93.53C61.1775 94.8647 61.3548 95.8447 61.7095 96.47C62.0735 97.0953 62.6055 97.408 63.3055 97.408ZM68.536 101.524V93.138C68.536 92.8673 68.522 92.592 68.494 92.312C68.4753 92.0227 68.452 91.7333 68.424 91.444H69.796L69.936 93.04H69.782C69.9313 92.508 70.23 92.088 70.678 91.78C71.1353 91.472 71.6767 91.318 72.302 91.318C72.9273 91.318 73.4733 91.4673 73.94 91.766C74.4067 92.0553 74.766 92.4707 75.018 93.012C75.2793 93.5533 75.41 94.2067 75.41 94.972C75.41 95.728 75.2793 96.3813 75.018 96.932C74.766 97.4827 74.4067 97.9027 73.94 98.192C73.4733 98.4813 72.9273 98.626 72.302 98.626C71.686 98.626 71.1493 98.4767 70.692 98.178C70.244 97.87 69.9453 97.4547 69.796 96.932H69.95V101.524H68.536ZM71.952 97.52C72.568 97.52 73.058 97.3053 73.422 96.876C73.7953 96.4467 73.982 95.812 73.982 94.972C73.982 94.132 73.7953 93.502 73.422 93.082C73.058 92.6527 72.568 92.438 71.952 92.438C71.336 92.438 70.8413 92.6527 70.468 93.082C70.104 93.502 69.922 94.132 69.922 94.972C69.922 95.812 70.104 96.4467 70.468 96.876C70.8413 97.3053 71.336 97.52 71.952 97.52ZM75.8952 98.5L79.1012 94.524V95.196L76.0632 91.444H77.7572L79.8992 94.202H79.3952L81.5372 91.444H83.2172L80.2072 95.182V94.538L83.3992 98.5H81.7052L79.3952 95.546H79.8992L77.5752 98.5H75.8952Z" fill="#989898"/>
</svg>
