<svg width="17" height="16" viewBox="0 0 17 16" fill="none" xmlns="http://www.w3.org/2000/svg">
<path d="M8.03159 0.541831C8.88858 0.345783 9.82851 0.858074 10.1273 1.67611C10.462 2.4883 10.1138 3.50588 9.34149 3.93765C8.58743 4.3986 7.51751 4.20372 6.97696 3.50822C6.41877 2.84422 6.43406 1.79338 7.0099 1.14456C7.27106 0.839403 7.63633 0.623517 8.03159 0.541831Z" fill="#59B96B"/>
<path d="M3.86902 4.9815C4.45368 4.40444 5.44008 4.30291 6.12944 4.75394C6.55117 5.01592 6.84762 5.45411 6.95408 5.93431C6.31942 6.40284 5.93769 7.17945 5.96004 7.96422C5.18186 8.36857 4.14194 8.1095 3.64845 7.39008C3.11378 6.67532 3.21378 5.58889 3.86902 4.9815Z" fill="#59B96B"/>
<path d="M6.83227 4.83441C7.83808 4.32504 9.10681 4.34604 10.0838 4.91318C9.87558 5.188 9.73029 5.50483 9.65206 5.83916C8.95153 5.4138 8.03689 5.37996 7.30871 5.75864C7.21754 5.42139 7.05814 5.10339 6.83227 4.83441Z" fill="#59B96B"/>
<path d="M9.90845 5.97255C10.0361 5.21403 10.6955 4.58154 11.466 4.48819C12.2065 4.37616 12.987 4.77001 13.3347 5.42758C13.747 6.15226 13.5794 7.1395 12.9476 7.68796C12.3947 8.19675 11.5207 8.30236 10.8601 7.94119C10.8701 7.18559 10.5161 6.43174 9.90845 5.97255Z" fill="#59B96B"/>
<path d="M8.08631 6.08544C8.95507 5.91331 9.88441 6.46353 10.1526 7.29848C10.455 8.1241 10.0662 9.12709 9.27564 9.52794C8.48511 9.96963 7.3946 9.7059 6.8964 8.9538C6.36233 8.21979 6.49349 7.10944 7.18638 6.51954C7.43872 6.29666 7.7534 6.14379 8.08631 6.08544Z" fill="#59B96B"/>
<path d="M2.7767 9.0303C3.48017 8.51276 4.40716 8.35347 5.26239 8.48592C6.09704 8.61603 6.95344 9.08282 7.28106 9.89384C6.59582 10.0881 5.93117 10.4546 5.51296 11.0415C5.27651 11.3695 5.13652 11.7685 5.13946 12.1735C5.13828 12.7289 5.13946 13.2844 5.13946 13.8399C4.5648 13.8265 3.98661 13.8737 3.4143 13.809C2.95139 13.7436 2.47437 13.5347 2.21792 13.1292C2.05852 12.8807 1.99852 12.5819 2.00264 12.2902C2.00381 11.6682 2.00323 11.0456 2.00264 10.4236C1.99558 9.86409 2.33438 9.35355 2.7767 9.0303Z" fill="#59B96B"/>
<path d="M11.1096 8.65233C12.0378 8.31392 13.123 8.37752 13.9847 8.8688C14.5246 9.17746 14.9822 9.72243 15.0005 10.3637C15.004 11.0253 15.0016 11.687 15.0016 12.3486C15.0034 12.7308 14.8587 13.1206 14.5664 13.3767C14.1923 13.7093 13.6753 13.8301 13.1847 13.8394C12.6824 13.8423 12.1807 13.84 11.679 13.8406C11.6778 13.2653 11.6813 12.6906 11.6778 12.1158C11.6701 11.6351 11.4531 11.1747 11.1308 10.8223C10.7514 10.4028 10.2414 10.1204 9.70793 9.9424C9.93262 9.31808 10.4979 8.8758 11.1096 8.65233Z" fill="#59B96B"/>
<path d="M7.67814 10.1708C8.53749 10.0028 9.478 10.1352 10.2115 10.6265C10.6903 10.9463 11.0702 11.4696 11.0744 12.0595C11.0773 12.7002 11.0767 13.3408 11.0749 13.9815C11.0773 14.3543 10.9526 14.7383 10.6773 15.0002C10.2979 15.3643 9.75151 15.4933 9.23802 15.4997C8.64924 15.4997 8.06105 15.5009 7.47286 15.4985C6.97819 15.4886 6.45294 15.3602 6.0912 15.0061C5.81769 14.7418 5.69829 14.3561 5.69947 13.9838C5.69711 13.3432 5.69652 12.7025 5.69947 12.0619C5.70299 11.6441 5.8971 11.245 6.18472 10.9463C6.57881 10.5326 7.1223 10.2846 7.67814 10.1708Z" fill="#59B96B"/>
</svg>
