<svg
    xmlns="http://www.w3.org/2000/svg"
    width="300"
    height="300"
    viewBox="0 0 300 300"
>
  <!-- Background circle or shape (optional) -->
  <rect width="300" height="300" fill="white" />

  <!-- Gear + Home + Checkmark icon -->
  <g transform="translate(75,60)">
    <!-- Gear -->
    <circle cx="75" cy="75" r="60" fill="#002A5C"/>
    <!-- Gear teeth (simplified) -->
    <path d="
      M75,15
      L85,25
      L95,25
      L105,15
      L115,25
      L125,25
      L135,15
      L145,25
      L145,35
      L155,45
      L145,55
      L145,65
      L155,75
      L145,85
      L145,95
      L155,105
      L145,115
      L145,125
      L135,135
      L125,125
      L115,135
      L105,125
      L95,135
      L85,125
      L75,135
      L65,125
      L55,135
      L45,125
      L35,135
      L25,125
      L15,135
      L25,125
      L25,115
      L15,105
      L25,95
      L25,85
      L15,75
      L25,65
      L25,55
      L15,45
      L25,35
      L25,25
      L35,15
      L45,25
      L55,15
      Z
    " fill="#002A5C" stroke="#00B5E2" stroke-width="8" />

    <!-- House shape -->
    <path d="M75,55 L55,75 L55,105 L95,105 L95,75 Z" fill="#00B5E2"/>

    <!-- Checkmark -->
    <path d="M60,85 L70,100 L100,60" fill="none" stroke="white" stroke-width="12" stroke-linecap="round" stroke-linejoin="round"/>
  </g>

  <!-- Text “QMS” -->
  <text x="150" y="260" font-family="Arial, sans-serif" font-size="72" font-weight="bold" fill="#002A5C" text-anchor="middle">QMS</text>
</svg>