<svg width="201" height="51" viewBox="0 0 201 51" fill="none" xmlns="http://www.w3.org/2000/svg">
<path d="M3.96899 37.2152L6.49565 37.4497V32.451L3.96899 32.317V37.2152Z" fill="#00688F"/>
<path d="M21.6521 19.1993L18.4754 19.351V24.8338L21.6521 24.8064V19.1993Z" fill="#00688F"/>
<path d="M0.856812 30.946L3.25806 31.0465V26.1782L0.856812 26.1747V30.946Z" fill="#00688F"/>
<path d="M0.959268 20.3252L3.35875 20.2141V15.3387L0.959268 15.5486V20.3252Z" fill="#00688F"/>
<path d="M7.33991 31.2211L10.0158 31.3348V26.1906L7.33991 26.1862V31.2211Z" fill="#00688F"/>
<path d="M21.6521 12.112L18.4754 12.4241V17.9051L21.6521 17.7182V12.112Z" fill="#00688F"/>
<path d="M11.0526 24.8928L13.8893 24.8699V19.5731L11.0526 19.7089V24.8928Z" fill="#00688F"/>
<path d="M11.2293 11.829L14.0685 11.5195V6.21307L11.2293 6.63802V11.829Z" fill="#00688F"/>
<path d="M10.6005 37.8324L13.4177 38.0907V32.816L10.6005 32.6661V37.8324Z" fill="#00688F"/>
<path d="M7.64195 18.5417L10.3249 18.3856V13.2317L7.64195 13.4988V18.5417Z" fill="#00688F"/>
<path d="M10.6005 44.3563L13.4177 44.7601V39.4863L10.6005 39.1936V44.3563Z" fill="#00688F"/>
<path d="M30.5311 24.7826L43.5786 24.6812V14.0498L30.5311 15.0081V24.7826Z" fill="#00688F"/>
<path d="M21.6521 5.07933L18.4754 5.55453V11.0356L21.6521 10.6891V5.07933Z" fill="#00688F"/>
<path d="M25.0274 13.9819L43.5786 12.432V1.80322L25.0274 4.57768V13.9819Z" fill="#00688F"/>
<path d="M26.1349 18.9816L22.7569 19.1456V24.7985L26.1349 24.7712V18.9816Z" fill="#00688F"/>
<path d="M14.1525 44.8668L17.1286 45.2953V39.868L14.1525 39.5595V44.8668Z" fill="#00688F"/>
<path d="M18.1186 35.2959L43.5786 37.0504V26.4233L18.1186 26.3449V35.2959Z" fill="#00688F"/>
<path d="M14.692 18.1308L17.6921 17.951V12.5026L14.692 12.7997V18.1308Z" fill="#00688F"/>
<path d="M14.692 11.4508L17.6921 11.1228V5.67352L14.692 6.1205V11.4508Z" fill="#00688F"/>
<path d="M14.1525 31.5103L17.1286 31.6355V26.2082L14.1525 26.2029V31.5103Z" fill="#00688F"/>
<path d="M14.692 24.8637L17.6921 24.8382V19.3915L14.692 19.5326V24.8637Z" fill="#00688F"/>
<path d="M14.1525 38.1603L17.1286 38.4354V33.0108L14.1525 32.853V38.1603Z" fill="#00688F"/>
<path d="M18.1778 45.4443L21.3385 45.9001V40.3044L18.1778 39.9773V45.4443Z" fill="#00688F"/>
<path d="M26.4819 47.4843L43.5786 50.0375V39.4105L26.4819 37.9814V47.4843Z" fill="#00688F"/>
<path d="M65.164 12.4146L62.5959 12.1023V17.7122L65.164 17.8992V12.4146Z" fill="#59B96B"/>
<path d="M65.164 5.54045L62.5959 5.06495V10.6784L65.164 11.0251V5.54045Z" fill="#59B96B"/>
<path d="M65.164 19.346L62.5959 19.1943V24.8051L65.164 24.8324V19.346Z" fill="#59B96B"/>
<path d="M68.2229 12.7904L65.7967 12.4931V17.9451L68.2229 18.1251V12.7904Z" fill="#59B96B"/>
<path d="M58.9729 24.7698L61.7031 24.7971V19.1405L58.9729 18.9764V24.7698Z" fill="#59B96B"/>
<path d="M68.2229 6.10683L65.7967 5.65955V11.1124L68.2229 11.4406V6.10683Z" fill="#59B96B"/>
<path d="M59.8674 4.56299L44.9569 1.80347V12.4331L59.8674 13.9734V4.56299Z" fill="#59B96B"/>
<path d="M55.416 15.0003L44.9569 14.0475V24.6825L55.416 24.7813V15.0003Z" fill="#59B96B"/>
<path d="M74.8502 37.4567L76.8939 37.222V32.3205L74.8502 32.4546V37.4567Z" fill="#59B96B"/>
<path d="M71.1646 19.7042L68.8724 19.5683V24.8686L71.1646 24.8915V19.7042Z" fill="#59B96B"/>
<path d="M71.0228 6.62468L68.7252 6.19946V11.5094L71.0228 11.8191V6.62468Z" fill="#59B96B"/>
<path d="M69.2558 44.7719L71.5304 44.3679V39.2017L69.2558 39.4946V44.7719Z" fill="#59B96B"/>
<path d="M69.2558 38.0981L71.5304 37.8396V32.6699L69.2558 32.8198V38.0981Z" fill="#59B96B"/>
<path d="M66.2541 31.6386L68.6574 31.5133V26.2025L66.2541 26.2078V31.6386Z" fill="#59B96B"/>
<path d="M66.2541 38.443L68.6574 38.1677V32.8569L66.2541 33.0148V38.443Z" fill="#59B96B"/>
<path d="M72.0045 31.3378L74.1654 31.2239V26.1857L72.0045 26.1901V31.3378Z" fill="#59B96B"/>
<path d="M79.3254 15.5411L77.3839 15.3311V20.2097L79.3254 20.3208V15.5411Z" fill="#59B96B"/>
<path d="M77.4694 26.1778V31.0493L79.41 30.9487V26.1742L77.4694 26.1778Z" fill="#59B96B"/>
<path d="M66.2541 45.3074L68.6574 44.8786V39.5678L66.2541 39.8766V45.3074Z" fill="#59B96B"/>
<path d="M73.924 13.49L71.7542 13.2227V18.38L73.924 18.5362V13.49Z" fill="#59B96B"/>
<path d="M76.5907 7.65598L74.5347 7.27398V12.2937L76.5907 12.5725V7.65598Z" fill="#59B96B"/>
<path d="M68.2229 19.5277L65.7967 19.3866V24.8368L68.2229 24.8624V19.5277Z" fill="#59B96B"/>
<path d="M44.9569 37.0527L65.4504 35.3015V26.3445L44.9569 26.423V37.0527Z" fill="#59B96B"/>
<path d="M62.8479 45.9126L65.4054 45.4565V39.986L62.8479 40.3133V45.9126Z" fill="#59B96B"/>
<path d="M44.9569 50.0378L58.6883 47.4979V37.9887L44.9569 39.4081V50.0378Z" fill="#59B96B"/>
<path d="M85.3785 7.77439L85.3622 6.61987L88.9996 6.84805L90.6295 6.83175H91.2244C91.8438 6.83175 92.8108 6.79645 94.1311 6.72582C94.8835 6.67421 95.3535 6.64975 95.5491 6.64975C96.5172 6.62466 97.4854 6.69564 98.4394 6.86165C99.2921 7.0053 100.102 7.33856 100.808 7.83686C101.447 8.34999 101.962 8.99979 102.316 9.73842C102.705 10.4468 102.921 11.2371 102.946 12.0447C102.946 13.8123 102.391 15.2466 101.281 16.3477C100.728 16.8938 100.069 17.3218 99.3451 17.6057C98.6214 17.8896 97.8474 18.0235 97.0703 17.9993C96.5028 18.0025 95.9373 17.9303 95.3888 17.7847C94.8605 17.6462 94.3553 17.4312 93.8893 17.1463C93.8307 16.7434 93.8053 16.3364 93.8132 15.9293C94.055 15.9484 94.2778 15.9646 94.4733 15.9728C94.6689 15.9809 94.8482 15.9891 95.0004 15.9891C95.7866 16.0131 96.556 15.7591 97.1736 15.2719C97.9523 14.6634 98.3416 13.6592 98.3416 12.2593C98.3741 11.4149 98.1988 10.5753 97.8309 9.81449C97.5748 9.26635 97.1503 8.8143 96.6194 8.52415C95.9314 8.21164 95.1827 8.05576 94.4272 8.06777C93.6666 8.06777 93.1233 8.18005 92.7973 8.40462C92.721 8.52371 92.659 8.65135 92.6125 8.78492L92.7212 15.9619L92.6886 16.5704L92.7348 17.2115C92.7348 17.3528 92.7511 17.5619 92.7511 17.8363V19.0859V21.0825L92.7212 23.4595C92.7283 23.9135 92.7592 24.3669 92.8136 24.8177L95.8425 25.1981C95.8782 25.389 95.8991 25.5825 95.905 25.7767C95.897 25.9921 95.8715 26.2065 95.8289 26.4178C95.6377 26.4518 95.4443 26.4718 95.2503 26.4775C94.9352 26.4775 94.3411 26.4395 93.4682 26.3634C92.5953 26.2874 91.5993 26.2493 90.4801 26.2493C89.2787 26.2454 88.0786 26.3271 86.8889 26.4938C86.696 26.5237 86.389 26.5482 85.9734 26.5699C85.9399 26.3531 85.9199 26.1345 85.9136 25.9152C85.9136 25.8228 85.9136 25.6816 85.9435 25.4887L86.8726 25.1845C87.4515 25.0171 88.0087 24.7818 88.5324 24.4836C88.6193 24.2206 88.6651 23.9457 88.6682 23.6687C88.6682 23.5681 88.6682 23.4513 88.6682 23.3182C88.6682 23.0031 88.6519 22.563 88.6519 21.9926L88.6057 17.7141L88.44 12.8896C88.3675 10.5932 88.3114 9.35448 88.2716 9.17338C88.218 8.91275 88.0918 8.6726 87.9076 8.48067C87.658 8.28065 87.3563 8.15622 87.0383 8.12209C86.4782 8.04177 85.9238 7.92563 85.3785 7.77439Z" fill="#59B96B"/>
<path d="M103.652 18.559C103.793 18.4422 103.96 18.3611 104.139 18.3227C104.632 18.2149 105.103 18.0209 105.53 17.7495C105.613 17.5213 105.655 16.7499 105.657 15.4351C105.687 13.8035 105.635 12.1715 105.5 10.5454C105.478 10.3879 105.396 10.2449 105.271 10.146C104.961 9.99729 104.633 9.88605 104.296 9.81462C104.214 9.80222 104.138 9.76559 104.077 9.70943C104.016 9.65328 103.973 9.58017 103.954 9.4995L103.911 8.95619C104.598 8.86786 105.256 8.62046 105.831 8.23361C106.327 7.91885 106.763 7.51876 107.119 7.05192C107.239 6.87366 107.373 6.70558 107.521 6.54938L108.523 6.52222C108.565 6.70055 108.588 6.88253 108.594 7.06552C108.594 7.17146 108.594 7.29914 108.594 7.45398C108.594 7.78811 108.58 8.06519 108.58 8.28523C108.58 8.38845 108.58 8.78506 108.594 9.47234C108.854 9.00797 109.14 8.559 109.452 8.12766C109.692 7.87822 109.946 7.64327 110.213 7.42408C110.531 7.18695 110.919 7.06099 111.316 7.06552C111.805 7.05997 112.278 7.24506 112.633 7.58164C112.806 7.72832 112.946 7.91047 113.042 8.11574C113.139 8.32102 113.19 8.54464 113.193 8.77147C113.196 9.21131 113.046 9.63851 112.769 9.98032C112.639 10.1543 112.469 10.2944 112.273 10.3889C112.077 10.4834 111.862 10.5296 111.644 10.5236C111.17 10.4995 110.717 10.3179 110.357 10.0075C110.179 9.83885 109.953 9.72888 109.71 9.69237L109.61 9.70867C109.367 9.81607 109.174 10.0097 109.066 10.252C108.806 10.7042 108.668 11.2161 108.664 11.7379L108.694 12.1236C108.732 12.8263 108.761 14.477 108.781 17.0758C108.814 17.3321 108.907 17.577 109.053 17.7903C109.209 17.9151 109.385 18.0116 109.574 18.0755C109.877 18.1538 110.186 18.202 110.498 18.2195C110.78 18.2157 111.059 18.278 111.313 18.4015C111.364 18.4536 111.404 18.5164 111.428 18.5854C111.452 18.6544 111.461 18.728 111.454 18.8008C111.448 18.9446 111.419 19.0866 111.37 19.2219H110.012L107.276 19.0942C106.65 19.0909 106.023 19.119 105.399 19.1784H105.133C105.068 19.1784 104.571 19.2029 103.644 19.2518C103.62 19.1346 103.605 19.0155 103.601 18.8959C103.607 18.7822 103.625 18.6695 103.652 18.559Z" fill="#59B96B"/>
<path d="M114.698 11.6804C114.841 11.1096 115.063 10.5612 115.355 10.0505C115.817 9.3453 116.397 8.72501 117.069 8.21683C117.56 7.83583 118.111 7.54011 118.699 7.34211C119.196 7.18316 119.713 7.0918 120.234 7.07046C120.964 7.05402 121.694 7.12423 122.407 7.27963C122.902 7.39291 123.373 7.59344 123.798 7.87183C124.275 8.19197 124.708 8.57276 125.086 9.00461C125.425 9.41003 125.694 9.86906 125.882 10.3629C126.104 10.9628 126.218 11.5975 126.219 12.2373L124.629 12.2101C124.189 12.2101 123.224 12.1684 121.734 12.0851C121.19 12.0362 120.799 12.0118 120.587 12.0118L119.042 12.0417H117.819C117.802 12.1559 117.793 12.2712 117.792 12.3867C117.796 12.9251 117.858 13.4615 117.977 13.9867C118.086 14.506 118.275 15.0054 118.536 15.4672C118.778 15.8809 119.091 16.2487 119.46 16.5538C119.796 16.8417 120.182 17.0662 120.598 17.2166L121.429 17.4883C121.922 17.5017 122.415 17.4781 122.904 17.4176C123.319 17.3361 123.725 17.2133 124.116 17.0509C124.564 16.846 124.99 16.5938 125.385 16.2984C125.727 16.5483 126.015 16.7711 126.243 16.9721C125.516 17.8122 124.627 18.4969 123.63 18.9851C122.677 19.4119 121.642 19.6251 120.598 19.6098C119.976 19.6245 119.355 19.5569 118.751 19.4088C118.132 19.2457 117.546 18.9783 117.018 18.6183C116.499 18.2619 116.048 17.8157 115.687 17.3008C115.33 16.8022 115.049 16.2528 114.855 15.6709C114.648 15.1092 114.527 14.5194 114.497 13.9215C114.491 13.1697 114.558 12.4191 114.698 11.6804ZM123.021 11.0746C123.012 10.5461 122.905 10.024 122.706 9.53433C122.523 9.06517 122.197 8.66526 121.774 8.39069C121.313 8.06111 120.743 7.92232 120.182 8.00331C119.621 8.0843 119.113 8.3788 118.764 8.82532C118.219 9.46553 117.911 10.2744 117.892 11.1153L121.152 11.1452C121.361 11.1452 121.658 11.1452 122.041 11.1018C122.312 11.0773 122.513 11.0637 122.627 11.0637C122.741 11.0637 122.847 11.0664 123.021 11.0746Z" fill="#59B96B"/>
<path d="M127.892 18.3226C127.991 18.2783 128.098 18.2542 128.207 18.2519C128.67 18.2371 129.126 18.1348 129.552 17.9504C129.587 17.9336 129.617 17.9076 129.638 17.875C129.66 17.8425 129.672 17.8047 129.674 17.7657C129.674 17.6679 129.715 16.8013 129.753 15.1606V14.332V12.8597V11.3276V10.9853C129.782 10.6268 129.672 10.2708 129.446 9.99105C129.239 9.77735 128.702 9.54645 127.835 9.29834V8.70887L128.479 8.5513C129.24 8.41292 129.974 8.1524 130.652 7.77983C131.149 7.47034 131.59 7.07803 131.956 6.61987H132.743V6.84805L132.787 7.99442V8.52415L132.814 8.7958C133.498 8.21533 134.263 7.73763 135.085 7.37777C135.75 7.13538 136.453 7.01572 137.16 7.02463C137.912 7.02664 138.653 7.19259 139.334 7.51088C140.069 7.86612 140.68 8.43396 141.089 9.14078C141.602 8.61649 142.174 8.15342 142.794 7.76081C143.203 7.54438 143.639 7.38358 144.09 7.2827C144.598 7.15138 145.12 7.08205 145.644 7.07624C146.972 7.07624 148.022 7.47738 148.795 8.27965C149.569 9.08193 149.955 10.1785 149.955 11.5693V13.843C149.955 14.3103 149.941 15.1162 149.912 16.2607V17.3636C149.914 17.5619 149.973 17.7553 150.083 17.9205C150.391 18.06 150.713 18.1639 151.045 18.2302C151.237 18.258 151.422 18.3246 151.588 18.4258C151.602 18.5731 151.627 18.7192 151.661 18.8632L151.645 19.1511C151.456 19.1908 151.264 19.2153 151.072 19.2244C150.996 19.2244 150.765 19.2027 150.379 19.1592C149.89 19.1135 149.4 19.0927 148.909 19.0968C147.461 19.0968 146.314 19.1393 145.47 19.2244C145.413 19.0393 145.379 18.8476 145.37 18.654L145.386 18.4557C145.508 18.3905 145.929 18.2248 146.617 17.964C146.718 17.8769 146.792 17.7629 146.831 17.6353C146.896 17.1282 146.92 16.6168 146.905 16.1059L146.831 12.0719C146.833 11.5076 146.781 10.9445 146.674 10.3904C146.607 10.0173 146.464 9.66206 146.253 9.34724C146.046 9.08141 145.782 8.86549 145.481 8.71548C145.179 8.56547 144.848 8.48522 144.511 8.48067C143.939 8.49146 143.379 8.64557 142.881 8.9289C142.291 9.2605 141.785 9.72562 141.406 10.2872L141.376 10.7001L141.42 12.5337L141.39 14.0386V15.473V16.747C141.39 17.3772 141.453 17.7494 141.577 17.8635C141.768 18.0455 142.235 18.1732 142.982 18.2519L143.425 18.3959C143.49 18.5637 143.528 18.7406 143.539 18.9202C143.531 19.0377 143.512 19.1541 143.482 19.2679L143.066 19.2543H142.496L142.194 19.238C141.517 19.1728 140.817 19.1348 140.094 19.1239L138.562 19.0968C138.2 19.0968 137.557 19.1393 136.633 19.2244L136.378 19.181L136.348 18.3226C136.858 18.2125 137.376 18.1453 137.897 18.1215C137.961 18.1088 138.024 18.0897 138.084 18.0645C138.169 17.9748 138.232 17.867 138.269 17.7494C138.329 17.3659 138.353 16.9775 138.339 16.5894L138.326 13.6801L138.369 12.9086C138.369 11.4163 138.316 10.4945 138.209 10.1432C138.073 9.67985 137.775 9.28078 137.37 9.01855C136.917 8.71934 136.383 8.56664 135.84 8.58118C135.126 8.56232 134.422 8.75106 133.814 9.12448C133.241 9.49121 132.909 9.81992 132.825 10.1052C132.825 10.2192 132.809 10.3062 132.809 10.3768L132.838 10.5208V10.6648C132.828 10.8012 132.798 10.9355 132.752 11.0641L132.795 15.1769L132.809 17.3256C132.815 17.4505 132.829 17.5748 132.852 17.6978L132.923 17.9124C133.147 17.9849 133.374 18.0456 133.605 18.0944C133.879 18.1436 134.147 18.2276 134.4 18.3443C134.423 18.4573 134.437 18.5716 134.444 18.6866C134.434 18.8724 134.395 19.0557 134.33 19.2299H134.001C133.895 19.2299 133.417 19.1919 132.567 19.1131H131.005C130.261 19.1131 129.355 19.1602 128.288 19.2543L127.873 19.2407C127.853 19.0886 127.834 18.9121 127.816 18.711C127.823 18.5786 127.848 18.4479 127.892 18.3226Z" fill="#59B96B"/>
<path d="M152.43 19.2812L152.4 18.3494L154.03 18.1348C154.224 18.0978 154.399 17.994 154.524 17.8414C154.644 17.5691 154.69 17.2706 154.66 16.9749V16.8173C154.66 16.7032 154.66 16.4968 154.682 16.1952C154.704 15.8937 154.704 15.6302 154.704 15.3993C154.704 15.2173 154.69 14.856 154.66 14.3534L154.682 13.639L154.66 12.9653L154.704 10.6291C154.703 10.3219 154.674 10.0154 154.617 9.71366C154.464 9.53711 154.264 9.40719 154.041 9.33878C153.567 9.20244 153.078 9.12577 152.585 9.11058V8.30921C153.48 8.27299 154.36 8.06359 155.176 7.69257C155.792 7.38488 156.35 6.97315 156.825 6.47557H157.784C157.822 7.65997 157.841 9.19932 157.841 11.0936L157.741 16.9368C157.739 17.2998 157.758 17.6626 157.798 18.0234C158.27 18.1696 158.755 18.2751 159.246 18.3386C159.455 18.3657 159.662 18.4139 159.862 18.4825L159.832 19.2703C159.561 19.2703 159.384 19.2703 159.262 19.2703C159.14 19.2703 158.898 19.2703 158.605 19.2431C157.632 19.1942 156.331 19.1698 154.701 19.1698C154.234 19.1698 153.78 19.1888 153.343 19.2214C152.905 19.254 152.593 19.2812 152.43 19.2812ZM154.435 2.19165C154.427 1.95702 154.467 1.72327 154.554 1.505C154.64 1.28673 154.771 1.08862 154.937 0.923033C155.108 0.758185 155.309 0.62943 155.531 0.544474C155.752 0.459518 155.988 0.420109 156.225 0.428628C156.744 0.412307 157.248 0.600627 157.629 0.952928C157.801 1.09871 157.94 1.27953 158.037 1.48331C158.133 1.6871 158.185 1.90915 158.189 2.1346C158.187 2.47202 158.111 2.80485 157.966 3.10983C157.818 3.43534 157.573 3.70748 157.265 3.88947C156.972 4.07702 156.633 4.17864 156.285 4.18284C156.044 4.17716 155.808 4.12215 155.589 4.02121C155.371 3.92028 155.176 3.77558 155.016 3.59608C154.829 3.41338 154.682 3.19474 154.582 2.95337C154.482 2.71199 154.432 2.45287 154.435 2.19165Z" fill="#59B96B"/>
<path d="M160.898 7.69215C161.001 7.65412 161.088 7.62424 161.169 7.60522H165.437L165.752 7.6351L165.782 8.59404L165.738 9.99575L165.752 10.7238L165.738 12.897V14.3585C165.723 15.1195 165.775 15.8805 165.896 16.6322C166.014 17.019 166.259 17.3548 166.591 17.5857C166.939 17.8078 167.345 17.9195 167.757 17.9062C168.11 17.916 168.462 17.873 168.803 17.7785C169.131 17.6599 169.442 17.4963 169.726 17.2923C169.965 17.1413 170.188 16.9685 170.394 16.7761C170.633 16.5295 170.826 16.2437 170.968 15.9313L171.065 12.37C171.084 11.9978 171.095 11.6936 171.095 11.4545C171.095 11.2155 171.095 10.8949 171.074 10.5173C171.052 10.1397 171.052 9.93055 171.052 9.88166V9.35194L171.025 9.03953C170.73 8.87638 170.402 8.78341 170.066 8.76788L169.104 8.69455C169.048 8.66686 168.995 8.63316 168.947 8.59404C168.915 8.45296 168.896 8.30931 168.89 8.16482C168.893 8.00195 168.908 7.83949 168.933 7.67856C169.202 7.63375 169.475 7.60925 169.748 7.60522L171.962 7.6351C172.554 7.6351 173.279 7.62515 174.135 7.60522L174.162 8.69183L174.105 10.0664L174.135 11.7832L174.119 14.2444L174.092 15.3445L174.105 16.0889C174.067 16.5833 174.048 16.8658 174.048 16.931C174.032 17.1211 174.076 17.3114 174.176 17.4743C174.263 17.5911 174.344 17.6481 174.42 17.6481L175.738 17.6047L175.909 17.6318C175.939 17.966 175.952 18.1588 175.952 18.205C175.948 18.3112 175.933 18.4167 175.909 18.5201C175.545 18.5259 175.182 18.5595 174.822 18.6206C173.684 18.885 172.564 19.2253 171.47 19.6393L170.897 19.6095L170.881 17.2733C170.767 17.371 170.609 17.5177 170.381 17.7188C169.736 18.328 169.004 18.8371 168.208 19.2291C167.608 19.4922 166.961 19.6264 166.306 19.623C165.597 19.6423 164.895 19.4746 164.272 19.1368C163.748 18.8611 163.312 18.4454 163.011 17.9361C162.776 17.4325 162.639 16.8884 162.609 16.3334C162.589 16.1523 162.579 15.2178 162.579 13.5299L162.595 13.0708C162.643 12.1364 162.666 11.4455 162.666 10.9981C162.666 10.2348 162.666 9.72409 162.623 9.46602C162.605 9.31489 162.557 9.16888 162.481 9.03681C162.33 8.97497 162.171 8.9321 162.009 8.90914C161.614 8.86543 161.228 8.76384 160.862 8.60762C160.813 8.57773 160.789 8.51797 160.789 8.42018C160.791 8.34372 160.798 8.26748 160.811 8.19198C160.86 8.06974 160.879 7.91219 160.898 7.69215Z" fill="#59B96B"/>
<path d="M177.099 18.3226C177.198 18.2787 177.305 18.2547 177.414 18.2519C177.882 18.2384 178.343 18.1361 178.772 17.9504C178.807 17.933 178.836 17.9068 178.857 17.8743C178.878 17.8418 178.89 17.8043 178.892 17.7657C178.908 17.6679 178.932 16.8013 178.97 15.1606V14.332L178.987 12.8597L178.97 11.3276V10.9853C179.001 10.6266 178.891 10.2701 178.663 9.99105C178.457 9.77644 177.922 9.54554 177.052 9.29834V8.70887L177.696 8.5513C178.457 8.4126 179.191 8.1521 179.87 7.77983C180.366 7.4689 180.807 7.0768 181.173 6.61987H181.961V6.84805L182.002 7.99442L181.988 8.52415L182.018 8.7958C182.702 8.21461 183.467 7.73684 184.289 7.37777C184.951 7.136 185.652 7.01635 186.357 7.02463C187.108 7.02664 187.849 7.19259 188.53 7.51088C189.265 7.86514 189.877 8.43321 190.285 9.14078C190.798 8.61649 191.371 8.15342 191.991 7.76081C192.399 7.54438 192.835 7.38358 193.286 7.2827C193.794 7.15138 194.316 7.08205 194.84 7.07624C196.169 7.07624 197.22 7.47738 197.991 8.27965C198.763 9.08193 199.149 10.1785 199.151 11.5693V13.843C199.151 14.3103 199.137 15.1162 199.108 16.2607V17.3636C199.111 17.5621 199.171 17.7555 199.282 17.9205C199.588 18.0599 199.91 18.1639 200.241 18.2302C200.433 18.258 200.618 18.3246 200.784 18.4258C200.798 18.5731 200.823 18.7192 200.857 18.8632L200.844 19.1511C200.655 19.1905 200.463 19.215 200.27 19.2244C200.192 19.2244 199.961 19.2027 199.575 19.1592C199.087 19.1135 198.596 19.0927 198.105 19.0968C196.657 19.0968 195.511 19.1393 194.669 19.2244C194.61 19.0396 194.576 18.8478 194.569 18.654L194.582 18.4557C194.707 18.3905 195.125 18.2248 195.815 17.964C195.916 17.8761 195.99 17.7624 196.03 17.6353C196.092 17.128 196.115 16.6167 196.101 16.1059L196.03 12.0719C196.031 11.5077 195.978 10.9447 195.872 10.3904C195.805 10.0171 195.661 9.66184 195.449 9.34724C195.251 9.08328 194.993 8.87009 194.696 8.72516C194.391 8.56458 194.052 8.48066 193.707 8.48067C193.135 8.49146 192.575 8.64557 192.077 8.9289C191.487 9.2605 190.982 9.72562 190.602 10.2872L190.573 10.7001L190.616 12.5337L190.589 14.0386V15.473L190.573 16.747C190.573 17.3772 190.635 17.7494 190.76 17.8635C190.95 18.0455 191.42 18.1732 192.164 18.2519L192.607 18.3959C192.672 18.5637 192.711 18.7406 192.721 18.9202C192.714 19.0377 192.694 19.1541 192.664 19.2679L192.251 19.2543H191.678L191.379 19.238C190.704 19.1728 190.003 19.1348 189.277 19.1239L187.747 19.0968C187.374 19.0968 186.731 19.1393 185.816 19.2244L185.561 19.181L185.531 18.3226C186.04 18.2125 186.558 18.1453 187.079 18.1215C187.143 18.1088 187.206 18.0897 187.267 18.0645C187.351 17.9748 187.414 17.867 187.451 17.7494C187.512 17.3659 187.536 16.9775 187.522 16.5894L187.508 13.6801L187.552 12.9086C187.552 11.4172 187.497 10.4963 187.394 10.1432C187.256 9.68019 186.957 9.28155 186.552 9.01855C186.099 8.71934 185.565 8.56664 185.023 8.58118C184.31 8.56223 183.607 8.75099 182.999 9.12448C182.423 9.49121 182.094 9.81992 182.007 10.1052C182.007 10.2192 182.007 10.3062 182.007 10.3768L182.035 10.5208V10.6648C182.025 10.8011 181.997 10.9355 181.95 11.0641L182.01 15.1741L182.026 17.3229C182.031 17.4477 182.045 17.5721 182.067 17.6951L182.141 17.9097C182.364 17.9828 182.592 18.0436 182.822 18.0917C183.096 18.1412 183.363 18.2252 183.616 18.3416C183.639 18.4543 183.654 18.5688 183.659 18.6839C183.649 18.8697 183.61 19.0529 183.545 19.2272H183.216C183.11 19.2272 182.632 19.1891 181.782 19.1104H180.22C179.476 19.1104 178.57 19.1574 177.503 19.2516L177.088 19.238C177.068 19.0859 177.049 18.9093 177.031 18.7083C177.035 18.5772 177.058 18.4473 177.099 18.3226Z" fill="#59B96B"/>
<path d="M125.651 43.4974C125.312 42.8917 125.844 42.658 126.165 42.3511C126.529 42.0006 126.922 41.6828 127.441 41.2292C126.885 41.0331 126.32 40.8662 125.746 40.7293C124.263 40.4577 122.978 39.8519 122.076 38.6349C121.416 37.7429 121.028 36.6785 120.96 35.5707C120.81 33.4491 121.612 31.7268 123.103 30.3278C123.646 29.8063 124.44 29.5129 125.143 29.1733C126.836 28.3584 128.639 28.8175 130.394 28.8093C131.573 28.8093 132.567 29.991 132.546 31.1346C132.546 31.7947 132.274 32.2701 131.627 32.4304C130.755 32.6532 129.973 32.3136 129.631 31.7187C129.289 31.1238 128.878 30.5316 128.482 29.9529C128.085 29.3743 127.395 29.5047 126.961 29.6813C126.435 29.8743 125.955 30.1743 125.552 30.5624C125.148 30.9506 124.829 31.4183 124.616 31.936C124.262 32.8448 124.167 33.8344 124.345 34.7938C124.776 37.5945 126.735 39.5748 130.019 38.5969C130.622 38.4121 131.139 37.8118 131.592 37.3092C131.883 36.986 132.16 36.9452 132.407 37.1517C132.474 37.1881 132.533 37.2377 132.58 37.2975C132.628 37.3572 132.663 37.4259 132.683 37.4994C132.703 37.5729 132.709 37.6498 132.699 37.7254C132.688 37.801 132.663 37.8738 132.624 37.9395C132.161 38.9746 131.339 39.8072 130.31 40.2838C129.958 40.4392 129.629 40.6401 129.329 40.8815C128.903 41.2645 128.582 41.6611 129.164 42.2587C129.81 42.9215 130.223 43.7229 130.049 44.7253C129.996 45.0727 129.869 45.4045 129.675 45.6977C129.481 45.9909 129.226 46.2384 128.927 46.4231C127.599 47.2679 126.121 47.4174 124.581 47.2544C123.573 47.1457 123.054 46.7111 123.016 45.983C122.965 45.0051 124.184 44.5705 124.85 44.9562C125.352 45.2496 125.828 45.5919 126.314 45.9151C126.8 46.2384 127.523 46.1868 127.781 45.7114C127.848 45.5625 127.88 45.4005 127.876 45.2373C127.872 45.0741 127.831 44.914 127.756 44.7688C127.278 44.0081 126.472 43.7202 125.651 43.4974Z" fill="#00688F"/>
<path d="M97.3698 40.7749L97.3562 39.9599C97.6888 39.8227 98.0312 39.7101 98.3803 39.6231C98.6888 39.5636 98.9859 39.4554 99.2605 39.3025C99.3156 39.2429 99.3581 39.1726 99.3852 39.096C99.4122 39.0194 99.4234 38.9381 99.418 38.857V38.5419C99.4561 37.6536 99.4751 37.1565 99.4751 37.0533C99.4751 36.95 99.4751 36.8468 99.4615 36.6947L99.4452 36.5235L99.4615 36.3361V36.2084L99.3746 33.7446V30.9927L99.3447 30.7211C99.1735 30.7211 98.9209 30.7211 98.5868 30.6912H97.6849C97.6251 30.6912 97.5464 30.6695 97.4404 30.645C97.4404 30.3734 97.4268 30.1778 97.4268 30.0257C97.4145 29.7918 97.4847 29.5611 97.6251 29.3737C97.9131 29.3737 98.4754 29.3411 99.3175 29.2732C99.3343 28.185 99.5175 27.1059 99.8608 26.0732C100.132 25.1988 100.568 24.3839 101.143 23.6718L101.515 23.2561C102.034 22.7929 102.621 22.4135 103.256 22.1315C103.858 21.9047 104.497 21.7959 105.139 21.811C105.742 21.7901 106.343 21.9072 106.894 22.1532C107.302 22.3332 107.64 22.6437 107.853 23.0361C108.019 23.3423 108.111 23.6825 108.124 24.0303C108.12 24.2288 108.077 24.4244 107.995 24.6054C107.914 24.7865 107.797 24.9494 107.652 25.0844C107.52 25.2316 107.359 25.3501 107.179 25.4324C106.999 25.5146 106.804 25.5589 106.606 25.5625C106.303 25.5608 106.008 25.4659 105.761 25.2908C105.479 25.0349 105.243 24.7315 105.066 24.3944C104.897 24.0755 104.682 23.7834 104.427 23.5278C104.251 23.4067 104.04 23.3466 103.827 23.3567C103.681 23.3563 103.536 23.3868 103.403 23.4463C103.269 23.5057 103.15 23.5928 103.053 23.7017C102.806 23.9764 102.643 24.3156 102.583 24.6796C102.473 25.5352 102.43 26.398 102.455 27.2603L102.442 28.8358L102.455 29.2515H102.727L104.422 29.208C104.556 29.2124 104.689 29.2269 104.821 29.2515C104.954 29.3656 105.022 29.4606 105.022 29.5367L104.992 29.8084V30.1941C104.986 30.3046 104.972 30.4145 104.949 30.5228C104.858 30.5734 104.754 30.5987 104.65 30.5961H104.522L103.436 30.6233C103.297 30.6269 103.158 30.6178 103.02 30.5961H102.892C102.748 30.602 102.604 30.6229 102.463 30.6586V31.3595C102.463 31.4274 102.463 31.5306 102.463 31.6746C102.463 32.2179 102.482 32.5901 102.482 32.7911V34.8964L102.507 36.4285L102.49 37.6591C102.472 38.5283 102.563 39.0535 102.762 39.2346C103.034 39.5063 103.612 39.6964 104.484 39.7915C104.636 39.7999 104.786 39.8339 104.927 39.892C104.955 40.0392 104.974 40.188 104.984 40.3375C104.979 40.4866 104.96 40.6348 104.927 40.7803H103.898C103.811 40.7803 103.253 40.7468 102.224 40.6798L101.453 40.6228C100.708 40.6228 100.132 40.64 99.7223 40.6744C99.4923 40.7178 98.7081 40.7513 97.3698 40.7749Z" fill="#00688F"/>
<path d="M118.985 38.0831L119.316 38.2977C119.396 38.3578 119.452 38.4445 119.474 38.5422V38.6128C119.246 39.4622 118.945 40.0472 118.572 40.3677C118.184 40.6941 117.688 40.8653 117.181 40.8485C116.658 40.8614 116.146 40.6967 115.728 40.3813C115.229 39.9383 114.848 39.3782 114.619 38.7514C114.222 39.4595 113.617 40.0284 112.886 40.3813C112.027 40.7704 111.09 40.9564 110.148 40.9246C109.154 40.9246 108.423 40.7172 107.956 40.3025C107.727 40.0989 107.545 39.8473 107.424 39.5657C107.303 39.284 107.245 38.9791 107.255 38.6726C107.258 38.3423 107.329 38.0161 107.461 37.7137C107.626 37.3532 107.854 37.0256 108.135 36.7466C108.583 36.3276 109.087 35.9729 109.632 35.6926C109.738 35.6355 110.099 35.4753 110.719 35.2063L114.285 33.7747C114.315 33.4107 114.329 33.044 114.329 32.6718C114.329 31.3815 114.171 30.4986 113.856 30.0341C113.739 29.8833 113.586 29.7646 113.411 29.6895C113.235 29.6144 113.044 29.5853 112.854 29.6049C112.4 29.6006 111.951 29.6932 111.536 29.8766C111.182 30.0196 110.877 30.2644 110.661 30.5801C110.477 30.9522 110.36 31.3542 110.317 31.7673C110.299 32.0199 110.236 32.2674 110.132 32.498C109.917 32.7269 109.648 32.8971 109.349 32.9924C108.972 33.1418 108.716 33.2505 108.583 33.3157C108.204 33.5256 107.785 33.6525 107.353 33.6878C107.285 33.6273 107.231 33.5521 107.196 33.4679C107.161 33.3836 107.146 33.2926 107.152 33.2016C107.138 32.7112 107.256 32.2262 107.494 31.7971C107.909 31.1689 108.437 30.6227 109.051 30.1863C109.638 29.7276 110.292 29.3612 110.99 29.0996C111.967 28.8118 112.982 28.6771 114 28.7003C114.681 28.6828 115.356 28.8271 115.97 29.1214C116.496 29.3805 116.905 29.8287 117.116 30.3764C117.33 30.9306 117.436 31.9266 117.436 33.3645L117.409 35.7279L117.436 37.461V37.9066C117.412 38.1882 117.469 38.4709 117.599 38.7215C117.645 38.7902 117.706 38.8463 117.779 38.8848C117.852 38.9232 117.933 38.9428 118.015 38.9415C118.113 38.9458 118.209 38.9161 118.287 38.8573L118.719 38.1836L118.985 38.0831ZM114.288 34.7608C113.64 34.9903 113.022 35.2958 112.446 35.6709C111.882 35.9865 111.395 36.4235 111.02 36.9503C110.82 37.3043 110.721 37.7066 110.735 38.113C110.722 38.4872 110.855 38.8517 111.107 39.129C111.213 39.2533 111.345 39.3535 111.493 39.4229C111.641 39.4922 111.802 39.5291 111.965 39.531C112.458 39.5449 112.94 39.3821 113.324 39.0719C113.832 38.6617 114.139 38.333 114.212 38.0913C114.285 37.8495 114.342 37.1568 114.342 36.0213C114.345 35.6002 114.318 35.1792 114.288 34.7608Z" fill="#00688F"/>
<path d="M146.791 38.0831L147.12 38.2977C147.201 38.3569 147.257 38.444 147.277 38.5422L147.294 38.6128C147.063 39.4631 146.764 40.0472 146.392 40.3677C146.003 40.6941 145.508 40.8653 145.001 40.8485C144.478 40.8619 143.965 40.6971 143.548 40.3813C143.048 39.9391 142.667 39.3787 142.439 38.7514C142.041 39.4597 141.435 40.0286 140.703 40.3813C139.846 40.7707 138.909 40.9566 137.968 40.9246C136.974 40.9246 136.243 40.7172 135.776 40.3025C135.546 40.0991 135.364 39.8476 135.242 39.5659C135.121 39.2842 135.063 38.9793 135.072 38.6726C135.076 38.3421 135.147 38.0159 135.281 37.7137C135.446 37.3532 135.674 37.0256 135.955 36.7466C136.403 36.3276 136.906 35.9729 137.452 35.6926C137.558 35.6356 137.919 35.4753 138.538 35.2064L142.105 33.7747C142.132 33.4107 142.149 33.044 142.149 32.6718C142.149 31.3815 141.991 30.4987 141.676 30.0341C141.559 29.883 141.405 29.7643 141.229 29.6892C141.053 29.6141 140.861 29.5851 140.671 29.6049C140.217 29.6012 139.768 29.6938 139.353 29.8766C138.999 30.0196 138.696 30.2645 138.481 30.5801C138.295 30.9517 138.179 31.3539 138.136 31.7673C138.119 32.0202 138.055 32.2678 137.949 32.498C137.736 32.7275 137.467 32.8978 137.169 32.9924C136.792 33.1418 136.536 33.2505 136.403 33.3157C136.023 33.5261 135.603 33.653 135.17 33.6878C135.102 33.6268 135.05 33.5515 135.015 33.4673C134.981 33.3831 134.966 33.2923 134.972 33.2016C134.958 32.7112 135.076 32.2262 135.314 31.7971C135.728 31.1689 136.255 30.6227 136.868 30.1863C137.456 29.7276 138.111 29.3613 138.81 29.0997C139.786 28.8118 140.8 28.6771 141.817 28.7003C142.498 28.6825 143.173 28.8268 143.787 29.1214C144.314 29.3796 144.723 29.8281 144.933 30.3764C145.147 30.9306 145.254 31.9266 145.256 33.3646L145.226 35.7279L145.256 37.461V37.9066C145.233 38.1878 145.288 38.4701 145.417 38.7215C145.463 38.79 145.525 38.846 145.598 38.8844C145.671 38.9228 145.752 38.9425 145.835 38.9415C145.932 38.9454 146.028 38.9157 146.107 38.8573L146.536 38.1836L146.791 38.0831ZM142.092 34.7608C141.445 34.9908 140.828 35.2963 140.252 35.6709C139.688 35.986 139.201 36.4231 138.826 36.9503C138.626 37.3044 138.528 37.7066 138.541 38.113C138.527 38.4874 138.661 38.8524 138.913 39.129C139.019 39.2533 139.151 39.3535 139.299 39.4229C139.447 39.4922 139.608 39.5291 139.772 39.531C140.265 39.5449 140.746 39.3821 141.13 39.0719C141.635 38.6617 141.931 38.333 142.018 38.0913C142.105 37.8495 142.149 37.1568 142.149 36.0213C142.151 35.6002 142.13 35.1792 142.092 34.7608Z" fill="#00688F"/>
<path d="M151.376 29.7898C151.793 29.4909 152.25 29.2539 152.735 29.0862C153.335 28.9132 153.953 28.803 154.576 28.7575H155.391C156.48 28.779 157.531 29.1612 158.379 29.8441L158.409 29.4991L158.393 28.5402L158.45 27.0054C158.45 25.3918 158.326 24.3704 158.078 23.9412C158.002 23.8109 157.892 23.7036 157.76 23.6304C157.628 23.5573 157.479 23.521 157.328 23.5255C157.029 23.52 156.734 23.4563 156.459 23.3381V22.6508C156.688 22.5876 156.925 22.5565 157.162 22.5585C157.728 22.507 158.289 22.4088 158.839 22.2651L159.325 22.1646L160.743 21.8359C160.916 21.7886 161.094 21.755 161.273 21.7354C161.35 21.7381 161.427 21.7472 161.503 21.7625C161.55 21.9069 161.578 22.0566 161.588 22.208L161.574 22.4226V22.6943C161.574 22.9605 161.589 23.6722 161.618 24.8295V25.6009V26.0166V26.7337L161.661 28.2224L161.631 29.0971C161.612 29.4801 161.604 30.0805 161.604 30.9036C161.602 31.0223 161.607 31.1411 161.618 31.2594V31.8027C161.618 31.9576 161.604 32.0744 161.604 32.1477C161.604 32.2917 161.617 32.4954 161.645 32.7644V33.5521V33.8537C161.626 34.1253 161.618 34.5111 161.618 34.9973C161.618 35.4836 161.617 35.9454 161.645 36.3556C161.645 36.5186 161.645 36.6653 161.645 36.8011V37.8741C161.645 38.2191 161.645 38.6293 161.675 39.1074C162.078 39.2587 162.505 39.336 162.935 39.3356C163.119 39.3244 163.303 39.329 163.486 39.3492C163.524 39.4506 163.548 39.5565 163.557 39.6643C163.546 39.7986 163.512 39.93 163.457 40.0528C163.051 40.1499 162.64 40.2215 162.226 40.2674C160.917 40.4303 159.985 40.6594 159.431 40.9546C159.267 41.0673 159.082 41.145 158.887 41.1828C158.767 41.1822 158.648 41.1732 158.529 41.1557C158.529 40.9818 158.542 40.884 158.542 40.8242C158.553 40.4045 158.538 39.9845 158.499 39.5665C158.358 39.6453 158.178 39.7458 157.956 39.8707C157.412 40.2143 156.824 40.4838 156.209 40.6721C155.62 40.8314 155.012 40.9073 154.402 40.8976C153.2 40.8976 152.24 40.6685 151.523 40.2103C150.561 39.6518 149.794 38.8118 149.325 37.8035C148.911 36.8328 148.702 35.7867 148.711 34.7311C148.711 32.8024 149.6 31.1553 151.376 29.7898ZM155.788 39.2595C155.989 39.2785 156.16 39.2867 156.304 39.2867C156.65 39.2809 156.992 39.2147 157.315 39.0911C157.713 38.9381 158.094 38.7442 158.453 38.5125C158.453 38.1974 158.453 38.0018 158.453 37.9257C158.453 34.8995 158.41 33.0759 158.325 32.4547C158.258 31.7197 157.921 31.0356 157.38 30.5341C156.859 30.0841 156.19 29.844 155.503 29.8604C155.092 29.8584 154.686 29.9359 154.305 30.0886C153.947 30.2283 153.629 30.4553 153.381 30.7487C153.022 31.1696 152.746 31.6543 152.566 32.1776C152.33 32.8492 152.204 33.5547 152.194 34.2666C152.194 35.8204 152.524 37.0103 153.183 37.8361C153.497 38.2386 153.89 38.5725 154.338 38.8173C154.786 39.0621 155.279 39.2126 155.788 39.2595Z" fill="#00688F"/>
<path d="M165.027 33.1742C165.17 32.6028 165.393 32.0543 165.687 31.5443C166.148 30.8385 166.727 30.2173 167.399 29.7079C167.89 29.3281 168.441 29.0325 169.029 28.8332C169.525 28.6742 170.04 28.5829 170.561 28.5615C171.291 28.5447 172.02 28.614 172.734 28.768C173.229 28.8815 173.699 29.083 174.122 29.3629C174.599 29.6829 175.032 30.0627 175.412 30.493C175.749 30.8944 176.017 31.3488 176.206 31.8376C176.427 32.4377 176.541 33.0723 176.543 33.712L174.953 33.6849C174.513 33.6849 173.549 33.6432 172.06 33.5599C171.517 33.511 171.123 33.4893 170.914 33.4893L169.366 33.5165H168.135C168.117 33.6306 168.107 33.7459 168.105 33.8614C168.109 34.4009 168.172 34.9384 168.292 35.4642C168.401 35.9829 168.59 36.4814 168.852 36.942C169.092 37.3605 169.405 37.733 169.776 38.0421C170.112 38.3298 170.497 38.5535 170.914 38.7023L171.745 38.9739C172.238 38.9886 172.731 38.965 173.22 38.9033C173.635 38.8214 174.041 38.6986 174.432 38.5366C174.879 38.3316 175.303 38.0803 175.698 37.7868C176.043 38.034 176.328 38.2595 176.559 38.4578C175.831 39.2974 174.941 39.982 173.943 40.4707C172.991 40.8973 171.957 41.1105 170.914 41.0955C170.292 41.1105 169.671 41.0429 169.067 40.8945C168.448 40.7333 167.862 40.4668 167.334 40.1067C166.815 39.7486 166.363 39.3016 166 38.7865C165.643 38.2878 165.362 37.7384 165.169 37.1566C164.961 36.5949 164.84 36.005 164.81 35.4071C164.81 34.6575 164.883 33.9097 165.027 33.1742ZM173.351 32.5575C173.344 32.0288 173.237 31.5062 173.036 31.0173C172.851 30.5486 172.526 30.1489 172.104 29.8736C171.643 29.5442 171.073 29.4055 170.513 29.4865C169.952 29.5675 169.445 29.8619 169.097 30.3083C168.55 30.9491 168.241 31.7589 168.222 32.601L171.482 32.6282C171.691 32.6282 171.987 32.6281 172.37 32.5847C172.642 32.5602 172.843 32.5467 172.957 32.5467C173.071 32.5467 173.179 32.5575 173.351 32.5575Z" fill="#00688F"/>
<path d="M178.851 36.7653C179.058 36.7182 179.269 36.6891 179.481 36.6784C179.55 36.6784 179.651 36.6838 179.783 36.6947L179.911 36.8359C180.215 37.4068 180.555 37.9576 180.929 38.4849C181.222 38.8368 181.553 39.154 181.918 39.4302C182.24 39.631 182.586 39.7899 182.948 39.9029C183.269 40.0181 183.609 40.076 183.95 40.074C184.521 40.086 185.075 39.879 185.498 39.4954C185.69 39.3449 185.846 39.1549 185.958 38.9383C186.069 38.7217 186.132 38.4836 186.142 38.2404C186.15 37.961 186.065 37.6869 185.901 37.4607C185.632 37.1724 185.297 36.9534 184.925 36.8224C184.337 36.6129 183.737 36.4405 183.127 36.3062C182.168 36.0672 181.587 35.9096 181.388 35.8336C180.949 35.6693 180.543 35.4262 180.19 35.1164C179.858 34.8318 179.587 34.4813 179.397 34.0868C179.175 33.6502 179.047 33.1717 179.022 32.6824C179.001 32.072 179.109 31.464 179.337 30.8977C179.55 30.4354 179.852 30.0199 180.226 29.6752C180.593 29.3533 181.019 29.1052 181.481 28.9445C182.054 28.7211 182.664 28.6086 183.279 28.6131C184.08 28.6045 184.88 28.6672 185.67 28.8005C186.277 28.8986 186.867 29.0872 187.419 29.3601C187.475 29.5793 187.556 30.0854 187.661 30.8787C187.767 31.6692 187.818 32.1391 187.818 32.2804C187.818 32.354 187.803 32.4268 187.775 32.495C187.577 32.5642 187.37 32.6035 187.161 32.6118C187.066 32.6118 186.927 32.6118 186.745 32.5819C186.658 32.4488 186.544 32.2478 186.4 31.9816C186.067 31.2867 185.586 30.673 184.99 30.1832C184.505 29.8325 183.919 29.6485 183.32 29.6589C182.715 29.6412 182.125 29.8451 181.66 30.2321C181.498 30.3715 181.37 30.5459 181.285 30.7422C181.2 30.9384 181.161 31.1514 181.171 31.3649C181.186 31.5513 181.239 31.7327 181.326 31.8977C181.414 32.0627 181.535 32.2078 181.682 32.3238C182.011 32.6589 182.592 32.9124 183.423 33.0845C184.372 33.2671 185.301 33.5456 186.194 33.9157C187.054 34.3159 187.66 34.7886 188.011 35.3337C188.37 35.9021 188.552 36.5636 188.536 37.2353C188.545 37.761 188.438 38.2824 188.221 38.7615C188.004 39.2407 187.684 39.6658 187.283 40.0061C186.447 40.7486 185.226 41.119 183.621 41.1172C183.413 41.1172 182.864 41.0692 181.975 40.9732C181.497 40.9091 181.023 40.8139 180.557 40.688C180.421 40.6499 180.074 40.5114 179.511 40.2723C179.418 40.2264 179.34 40.1536 179.289 40.0632C179.189 39.6713 179.124 39.2713 179.096 38.8679C178.941 37.6916 178.862 36.9935 178.851 36.7653Z" fill="#00688F"/>
</svg>
