<svg width="275" height="213" viewBox="0 0 275 213" fill="none" xmlns="http://www.w3.org/2000/svg">
<path d="M249.125 194.352H228.928V194.504H249.125V194.352Z" fill="#EBEBEB"/>
<path d="M221.253 194.352H178.073V194.504H221.253V194.352Z" fill="#EBEBEB"/>
<path d="M154.26 188.693H142.557V188.845H154.26V188.693Z" fill="#EBEBEB"/>
<path d="M27.6763 189.718H6.76611V189.87H27.6763V189.718Z" fill="#EBEBEB"/>
<path d="M71.1219 189.718H33.1006V189.87H71.1219V189.718Z" fill="#EBEBEB"/>
<path d="M112.066 192.291H89.6191V192.443H112.066V192.291Z" fill="#EBEBEB"/>
<path d="M99.9313 180.912H113.146V123.609H99.9313V180.912Z" fill="#F0F0F0"/>
<path d="M13.7468 184.656H46.1782V180.841H13.7468V184.656Z" fill="#F0F0F0"/>
<path d="M37.4504 130.695H22.7336V149.5H37.4504V130.695Z" fill="#F0F0F0"/>
<path d="M41.5477 154.951H16.2021V173.755H41.5477V154.951Z" fill="#F0F0F0"/>
<path d="M34.3653 141.342H76.6552C76.996 141.34 77.3223 141.204 77.5633 140.963C77.8042 140.722 77.9403 140.396 77.9419 140.055C77.9403 139.714 77.8045 139.387 77.5637 139.145C77.3229 138.903 76.9965 138.766 76.6552 138.762H34.3653C34.024 138.766 33.6976 138.903 33.4569 139.145C33.2161 139.387 33.0802 139.714 33.0786 140.055C33.0802 140.396 33.2163 140.722 33.4572 140.963C33.6982 141.204 34.0245 141.34 34.3653 141.342Z" fill="#F5F5F5"/>
<path d="M34.3653 165.747H76.6552C76.996 165.745 77.3223 165.609 77.5633 165.368C77.8042 165.127 77.9403 164.801 77.9419 164.46C77.9419 164.118 77.8066 163.79 77.5654 163.548C77.3243 163.306 76.997 163.169 76.6552 163.167H34.3653C34.0235 163.169 33.6962 163.306 33.4551 163.548C33.214 163.79 33.0786 164.118 33.0786 164.46C33.0802 164.801 33.2163 165.127 33.4572 165.368C33.6982 165.609 34.0245 165.745 34.3653 165.747Z" fill="#F5F5F5"/>
<path d="M169.353 167.984H92.6887V172.948H169.353V167.984Z" fill="#EBEBEB"/>
<path d="M183.141 151.429H106.477V156.393H183.141V151.429Z" fill="#EBEBEB"/>
<path d="M196.93 134.878H120.265V139.842H196.93V134.878Z" fill="#EBEBEB"/>
<path d="M210.72 118.322H134.055V123.285H210.72V118.322Z" fill="#EBEBEB"/>
<path d="M232.688 109.941H156.023V114.905H232.688V109.941Z" fill="#EBEBEB"/>
<path d="M246.476 93.3918H169.812V98.3556H246.476V93.3918Z" fill="#EBEBEB"/>
<path d="M260.265 76.8353H183.601V81.7991H260.265V76.8353Z" fill="#EBEBEB"/>
<path d="M274.065 60.2793H197.4V65.2431H274.065V60.2793Z" fill="#EBEBEB"/>
<path d="M127.221 212.079C192.52 212.079 245.456 208.988 245.456 205.176C245.456 201.364 192.52 198.273 127.221 198.273C61.9212 198.273 8.9856 201.364 8.9856 205.176C8.9856 208.988 61.9212 212.079 127.221 212.079Z" fill="#F5F5F5"/>
<path d="M162.486 91.3308C163.024 89.862 163.994 88.5906 165.268 87.6838C166.543 86.7771 168.062 86.2776 169.626 86.2511H218.441C219.285 86.2196 220.125 86.3735 220.902 86.7021C221.68 87.0307 222.376 87.5259 222.941 88.1528C223.506 88.7797 223.927 89.523 224.174 90.3303C224.42 91.1375 224.487 91.9891 224.369 92.8248L211.758 198.632C211.49 200.433 210.591 202.081 209.22 203.279C207.849 204.478 206.096 205.15 204.276 205.175H49.3852C48.5446 205.207 47.7071 205.055 46.9318 204.728C46.1565 204.402 45.4621 203.909 44.8977 203.285C44.3332 202.662 43.9123 201.922 43.6646 201.118C43.4169 200.314 43.3484 199.465 43.464 198.632L54.038 109.735C54.3056 107.933 55.2053 106.286 56.5761 105.087C57.9469 103.889 59.6995 103.217 61.5203 103.191H145.807C149.46 103.129 153.008 101.963 155.985 99.8459C158.962 97.7288 161.228 94.7603 162.486 91.3308Z" fill="#08A8FF"/>
<path d="M46.2566 200.303H208.105L217.325 91.4038H55.4829L46.2566 200.303Z" fill="#F0F0F0"/>
<path d="M46.2566 200.303H208.105L214.776 91.4038H55.4829L46.2566 200.303Z" fill="#E0E0E0"/>
<path d="M46.2566 200.304H208.105L213.666 87.9474H51.8241L46.2566 200.304Z" fill="#F0F0F0"/>
<path d="M46.2566 200.304H208.105L210.306 87.9474H51.8241L46.2566 200.304Z" fill="#E0E0E0"/>
<path d="M46.2566 200.303H208.105L209.068 84.8978H47.2262L46.2566 200.303Z" fill="#F0F0F0"/>
<path d="M46.2504 200.303H208.099L204.775 87.081H43.9758L46.2504 200.303Z" fill="#E0E0E0"/>
<path d="M46.2516 200.304H208.1L203.295 87.9474H41.4524L46.2516 200.304Z" fill="#F0F0F0"/>
<path d="M46.2519 200.304H208.1L200.447 89.6423H38.605L46.2519 200.304Z" fill="#E0E0E0"/>
<path d="M46.2557 200.303H208.104L199.231 90.5871H37.3892L46.2557 200.303Z" fill="#F0F0F0"/>
<path d="M127.303 98.204C127.312 97.4965 127.463 96.798 127.748 96.1502C128.032 95.5023 128.444 94.9184 128.959 94.433C129.474 93.9477 130.081 93.5709 130.745 93.3252C131.408 93.0794 132.115 92.9696 132.821 93.0024H181.636C183.526 93.0749 185.339 93.773 186.789 94.9871C188.239 96.2012 189.245 97.8625 189.649 99.7102L208.937 198.499C209.657 202.2 207.242 205.206 203.54 205.206H48.6501C44.9424 205.206 41.3324 202.2 40.6311 198.499L24.7213 117.059C24.0018 113.358 26.4166 110.351 30.1181 110.351H114.411C121.729 110.351 127.053 105.314 127.303 98.204Z" fill="#08A8FF"/>
<path opacity="0.2" d="M127.303 98.204C127.312 97.4965 127.463 96.798 127.748 96.1502C128.032 95.5023 128.444 94.9184 128.959 94.433C129.474 93.9477 130.081 93.5709 130.745 93.3252C131.408 93.0794 132.115 92.9696 132.821 93.0024H181.636C183.526 93.0749 185.339 93.773 186.789 94.9871C188.239 96.2012 189.245 97.8625 189.649 99.7102L208.937 198.499C209.657 202.2 207.242 205.206 203.54 205.206H48.6501C44.9424 205.206 41.3324 202.2 40.6311 198.499L24.7213 117.059C24.0018 113.358 26.4166 110.351 30.1181 110.351H114.411C121.729 110.351 127.053 105.314 127.303 98.204Z" fill="black"/>
<path opacity="0.2" d="M169.961 112.817C159.629 116.831 148.34 117.691 137.52 115.288C126.7 112.886 116.835 107.329 109.173 99.3201C101.511 91.3113 96.3957 81.2103 94.4743 70.2945C92.5529 59.3786 93.9115 48.1382 98.3783 37.9945C102.845 27.8507 110.22 19.2594 119.569 13.3067C128.918 7.35403 139.823 4.30743 150.904 4.55215C161.985 4.79686 172.745 8.3219 181.822 14.6815C190.9 21.0411 197.888 29.9497 201.902 40.2807C204.569 47.1407 205.858 54.4588 205.696 61.8171C205.534 69.1754 203.924 76.4297 200.958 83.1656C197.991 89.9015 193.727 95.9871 188.409 101.075C183.09 106.162 176.822 110.152 169.961 112.817Z" fill="#00688F"/>
<path d="M103.534 22.8279C111.001 13.7034 121.007 6.99821 132.285 3.56016C143.563 0.122119 155.608 0.105649 166.895 3.51284C178.183 6.92003 188.207 13.5978 195.699 22.7018C203.191 31.8058 207.816 42.9271 208.987 54.6594C210.159 66.3916 207.826 78.2078 202.282 88.6138C196.738 99.0198 188.233 107.548 177.842 113.121C167.452 118.693 155.642 121.059 143.907 119.919C132.171 118.78 121.037 114.186 111.913 106.719C99.6782 96.7043 91.9225 82.2404 90.3513 66.5083C88.78 50.7762 93.5218 35.0642 103.534 22.8279ZM192.029 95.2483C198.883 86.8694 203.099 76.6462 204.144 65.8713C205.188 55.0964 203.014 44.2538 197.897 34.7144C192.779 25.175 184.948 17.3673 175.393 12.2785C165.838 7.18976 154.989 5.0485 144.218 6.1255C133.446 7.2025 123.235 11.4494 114.877 18.3291C106.519 25.2089 100.389 34.4126 97.2612 44.7763C94.1337 55.1401 94.1495 66.1985 97.3066 76.5533C100.464 86.9081 106.62 96.0942 114.998 102.95C120.562 107.503 126.967 110.915 133.85 112.992C140.732 115.069 147.956 115.77 155.109 115.054C162.262 114.339 169.204 112.222 175.539 108.824C181.874 105.425 187.477 100.812 192.029 95.2483Z" fill="#00688F"/>
<path d="M197.29 95.0408C203.162 98.5472 208.748 102.401 214.236 106.377C219.724 110.353 225.072 114.494 230.335 118.744C235.598 122.994 240.763 127.367 245.745 131.958C248.241 134.251 250.68 136.605 253.062 139.02C255.453 141.459 257.801 143.898 260.014 146.545C260.526 147.158 260.807 147.929 260.811 148.728C260.815 149.526 260.541 150.3 260.036 150.918C259.531 151.536 258.826 151.959 258.043 152.113C257.26 152.268 256.448 152.144 255.745 151.765C252.696 150.118 249.843 148.301 246.995 146.441C244.147 144.581 241.366 142.642 238.622 140.648C233.134 136.672 227.823 132.483 222.621 128.159C217.419 123.836 212.297 119.415 207.315 114.817C202.333 110.219 197.448 105.511 192.85 100.45C192.276 99.8238 191.947 99.0118 191.923 98.1627C191.899 97.3136 192.182 96.4843 192.72 95.827C193.258 95.1697 194.015 94.7284 194.852 94.584C195.689 94.4396 196.55 94.6018 197.277 95.0408H197.29Z" fill="#00688F"/>
</svg>
