<svg width="40" height="31" viewBox="0 0 40 31" fill="none" xmlns="http://www.w3.org/2000/svg">
<path d="M32.6446 9.97371C30.836 2.91396 23.5292 -1.37245 16.3242 0.399717C10.6937 1.78466 6.60529 6.55294 6.18405 12.2261C2.18615 12.8721 -0.520358 16.5714 0.13894 20.4887C0.725025 23.9712 3.80471 26.5216 7.40681 26.5076H13.5206V24.1114H7.40681C4.70558 24.1114 2.51576 21.9657 2.51576 19.3189C2.51576 16.6721 4.70558 14.5265 7.40681 14.5265C8.08216 14.5265 8.62957 13.9901 8.62957 13.3284C8.62346 7.37305 13.5456 2.54045 19.6234 2.53453C24.8847 2.52937 29.4137 6.17388 30.4314 11.2317C30.5319 11.7367 30.9502 12.1225 31.4708 12.1901C34.8137 12.6566 37.1376 15.69 36.6616 18.9654C36.2342 21.9066 33.6713 24.0966 30.6393 24.1114H25.7482V26.5076H30.6393C35.3665 26.4936 39.187 22.7273 39.1727 18.0954C39.1607 14.2397 36.4673 10.8887 32.6446 9.97371Z" fill="#C4C4C4"/>
<path d="M18.7663 14.874L13.8752 19.6665L15.5993 21.3558L18.4117 18.6121V30.102H20.8572V18.6121L23.6573 21.3558L25.3814 19.6665L20.4904 14.874C20.0134 14.4094 19.2432 14.4094 18.7663 14.874Z" fill="#C4C4C4"/>
</svg>
