<svg width="107" height="68" viewBox="0 0 107 68" fill="none" xmlns="http://www.w3.org/2000/svg">
<path d="M6.34931 63.5286C4.78131 63.5286 3.61331 63.134 2.84531 62.3446C2.08798 61.5553 1.70931 60.3873 1.70931 58.8406V52.1046H3.37331V58.8086C3.37331 59.8966 3.60798 60.718 4.07731 61.2726C4.55731 61.8166 5.31465 62.0886 6.34931 62.0886C7.33065 62.0886 8.07198 61.8166 8.57331 61.2726C9.07465 60.718 9.32531 59.8966 9.32531 58.8086V52.1046H10.9573V58.8406C10.9573 60.3873 10.568 61.5553 9.78931 62.3446C9.01065 63.134 7.86398 63.5286 6.34931 63.5286ZM13.3949 66.8406V57.2566C13.3949 56.9473 13.3789 56.6326 13.3469 56.3126C13.3256 55.982 13.2989 55.6513 13.2669 55.3206H14.8349L14.9949 57.1446H14.8189C14.9896 56.5366 15.3309 56.0566 15.8429 55.7046C16.3656 55.3526 16.9843 55.1766 17.6989 55.1766C18.4136 55.1766 19.0376 55.3473 19.5709 55.6886C20.1043 56.0193 20.5149 56.494 20.8029 57.1126C21.1016 57.7313 21.2509 58.478 21.2509 59.3526C21.2509 60.2166 21.1016 60.9633 20.8029 61.5926C20.5149 62.222 20.1043 62.702 19.5709 63.0326C19.0376 63.3633 18.4136 63.5286 17.6989 63.5286C16.9949 63.5286 16.3816 63.358 15.8589 63.0166C15.3469 62.6646 15.0056 62.19 14.8349 61.5926H15.0109V66.8406H13.3949ZM17.2989 62.2646C18.0029 62.2646 18.5629 62.0193 18.9789 61.5286C19.4056 61.038 19.6189 60.3126 19.6189 59.3526C19.6189 58.3926 19.4056 57.6726 18.9789 57.1926C18.5629 56.702 18.0029 56.4566 17.2989 56.4566C16.5949 56.4566 16.0296 56.702 15.6029 57.1926C15.1869 57.6726 14.9789 58.3926 14.9789 59.3526C14.9789 60.3126 15.1869 61.038 15.6029 61.5286C16.0296 62.0193 16.5949 62.2646 17.2989 62.2646ZM23.1449 63.3846V51.6086H24.7609V63.3846H23.1449ZM30.5853 63.5286C29.7853 63.5286 29.092 63.3633 28.5053 63.0326C27.9186 62.6913 27.4653 62.2113 27.1453 61.5926C26.8253 60.9633 26.6653 60.2166 26.6653 59.3526C26.6653 58.4886 26.8253 57.7473 27.1453 57.1286C27.4653 56.4993 27.9186 56.0193 28.5053 55.6886C29.092 55.3473 29.7853 55.1766 30.5853 55.1766C31.3853 55.1766 32.0786 55.3473 32.6653 55.6886C33.2626 56.0193 33.7213 56.4993 34.0413 57.1286C34.372 57.7473 34.5373 58.4886 34.5373 59.3526C34.5373 60.2166 34.372 60.9633 34.0413 61.5926C33.7213 62.2113 33.2626 62.6913 32.6653 63.0326C32.0786 63.3633 31.3853 63.5286 30.5853 63.5286ZM30.5853 62.2646C31.2893 62.2646 31.8493 62.0193 32.2653 61.5286C32.6813 61.038 32.8893 60.3126 32.8893 59.3526C32.8893 58.3926 32.6813 57.6726 32.2653 57.1926C31.8493 56.702 31.2893 56.4566 30.5853 56.4566C29.892 56.4566 29.3373 56.702 28.9213 57.1926C28.5053 57.6726 28.2973 58.3926 28.2973 59.3526C28.2973 60.3126 28.5 61.038 28.9053 61.5286C29.3213 62.0193 29.8813 62.2646 30.5853 62.2646ZM39.5142 63.5286C38.7995 63.5286 38.1755 63.3633 37.6422 63.0326C37.1089 62.702 36.6929 62.222 36.3942 61.5926C36.1062 60.9633 35.9622 60.2166 35.9622 59.3526C35.9622 58.478 36.1062 57.7313 36.3942 57.1126C36.6929 56.494 37.1089 56.0193 37.6422 55.6886C38.1755 55.3473 38.7995 55.1766 39.5142 55.1766C40.2182 55.1766 40.8315 55.3526 41.3542 55.7046C41.8769 56.0566 42.2235 56.5366 42.3942 57.1446H42.2182L42.3782 55.3206H43.9462C43.9142 55.6513 43.8822 55.982 43.8502 56.3126C43.8289 56.6326 43.8182 56.9473 43.8182 57.2566V63.3846H42.2022V61.5926H42.3782C42.2075 62.19 41.8555 62.6646 41.3222 63.0166C40.7995 63.358 40.1969 63.5286 39.5142 63.5286ZM39.9142 62.2646C40.6075 62.2646 41.1622 62.0193 41.5782 61.5286C42.0049 61.038 42.2182 60.3126 42.2182 59.3526C42.2182 58.3926 42.0049 57.6726 41.5782 57.1926C41.1622 56.702 40.6075 56.4566 39.9142 56.4566C39.2102 56.4566 38.6449 56.702 38.2182 57.1926C37.8022 57.6726 37.5942 58.3926 37.5942 59.3526C37.5942 60.3126 37.8022 61.038 38.2182 61.5286C38.6342 62.0193 39.1995 62.2646 39.9142 62.2646ZM49.2642 63.5286C48.5602 63.5286 47.9362 63.3633 47.3922 63.0326C46.8589 62.702 46.4429 62.222 46.1442 61.5926C45.8562 60.9633 45.7122 60.2166 45.7122 59.3526C45.7122 58.478 45.8562 57.7313 46.1442 57.1126C46.4429 56.494 46.8589 56.0193 47.3922 55.6886C47.9362 55.3473 48.5602 55.1766 49.2642 55.1766C49.9575 55.1766 50.5655 55.3526 51.0882 55.7046C51.6215 56.046 51.9735 56.5153 52.1442 57.1126H51.9522V51.6086H53.5682V63.3846H51.9682V61.5606H52.1602C51.9789 62.1686 51.6269 62.6486 51.1042 63.0006C50.5815 63.3526 49.9682 63.5286 49.2642 63.5286ZM49.6642 62.2646C50.3575 62.2646 50.9175 62.0193 51.3442 61.5286C51.7709 61.038 51.9842 60.3126 51.9842 59.3526C51.9842 58.3926 51.7709 57.6726 51.3442 57.1926C50.9175 56.702 50.3575 56.4566 49.6642 56.4566C48.9602 56.4566 48.3949 56.702 47.9682 57.1926C47.5522 57.6726 47.3442 58.3926 47.3442 59.3526C47.3442 60.3126 47.5522 61.038 47.9682 61.5286C48.3949 62.0193 48.9602 62.2646 49.6642 62.2646ZM60.3358 63.3846V52.1046H61.9998V63.3846H60.3358ZM64.5043 63.3846V57.2566C64.5043 56.9473 64.4883 56.6326 64.4563 56.3126C64.435 55.982 64.4083 55.6513 64.3763 55.3206H65.9443L66.0883 57.0166H65.8963C66.1203 56.43 66.4616 55.9766 66.9203 55.6566C67.3896 55.3366 67.9496 55.1766 68.6003 55.1766C69.2616 55.1766 69.8003 55.3366 70.2163 55.6566C70.643 55.966 70.9363 56.446 71.0963 57.0966H70.8403C71.0536 56.51 71.4163 56.046 71.9283 55.7046C72.4403 55.3526 73.0323 55.1766 73.7043 55.1766C74.6003 55.1766 75.2723 55.438 75.7203 55.9606C76.1683 56.4833 76.3923 57.294 76.3923 58.3926V63.3846H74.7763V58.4726C74.7763 57.7686 74.6536 57.262 74.4083 56.9526C74.1736 56.6326 73.7896 56.4726 73.2563 56.4726C72.6376 56.4726 72.147 56.686 71.7843 57.1126C71.4216 57.5393 71.2403 58.1153 71.2403 58.8406V63.3846H69.6243V58.4726C69.6243 57.7686 69.5016 57.262 69.2563 56.9526C69.0216 56.6326 68.6376 56.4726 68.1043 56.4726C67.4856 56.4726 67.0003 56.686 66.6483 57.1126C66.2963 57.5393 66.1203 58.1153 66.1203 58.8406V63.3846H64.5043ZM81.7954 63.5286C81.0808 63.5286 80.4568 63.3633 79.9234 63.0326C79.3901 62.702 78.9741 62.222 78.6754 61.5926C78.3874 60.9633 78.2434 60.2166 78.2434 59.3526C78.2434 58.478 78.3874 57.7313 78.6754 57.1126C78.9741 56.494 79.3901 56.0193 79.9234 55.6886C80.4568 55.3473 81.0808 55.1766 81.7954 55.1766C82.4994 55.1766 83.1128 55.3526 83.6354 55.7046C84.1581 56.0566 84.5048 56.5366 84.6754 57.1446H84.4994L84.6594 55.3206H86.2274C86.1954 55.6513 86.1634 55.982 86.1314 56.3126C86.1101 56.6326 86.0994 56.9473 86.0994 57.2566V63.3846H84.4834V61.5926H84.6594C84.4888 62.19 84.1368 62.6646 83.6034 63.0166C83.0808 63.358 82.4781 63.5286 81.7954 63.5286ZM82.1954 62.2646C82.8888 62.2646 83.4434 62.0193 83.8594 61.5286C84.2861 61.038 84.4994 60.3126 84.4994 59.3526C84.4994 58.3926 84.2861 57.6726 83.8594 57.1926C83.4434 56.702 82.8888 56.4566 82.1954 56.4566C81.4914 56.4566 80.9261 56.702 80.4994 57.1926C80.0834 57.6726 79.8754 58.3926 79.8754 59.3526C79.8754 60.3126 80.0834 61.038 80.4994 61.5286C80.9154 62.0193 81.4808 62.2646 82.1954 62.2646ZM92.0894 66.9686C91.3641 66.9686 90.7028 66.8833 90.1054 66.7126C89.5188 66.542 88.9908 66.286 88.5214 65.9446L88.9214 64.7606C89.2521 64.9846 89.5774 65.1606 89.8974 65.2886C90.2174 65.4273 90.5534 65.5286 90.9054 65.5926C91.2574 65.6566 91.6201 65.6886 91.9934 65.6886C92.7614 65.6886 93.3374 65.4913 93.7214 65.0966C94.1161 64.7126 94.3134 64.1526 94.3134 63.4166V61.2566H94.4734C94.3028 61.854 93.9508 62.3286 93.4174 62.6806C92.8948 63.022 92.2868 63.1926 91.5934 63.1926C90.8574 63.1926 90.2174 63.0326 89.6734 62.7126C89.1401 62.382 88.7241 61.918 88.4254 61.3206C88.1374 60.7126 87.9934 59.998 87.9934 59.1766C87.9934 58.3553 88.1374 57.646 88.4254 57.0486C88.7241 56.4513 89.1401 55.9926 89.6734 55.6726C90.2174 55.342 90.8574 55.1766 91.5934 55.1766C92.2974 55.1766 92.9054 55.3526 93.4174 55.7046C93.9401 56.046 94.2868 56.5153 94.4574 57.1126L94.3134 56.9846L94.4574 55.3206H96.0254C95.9828 55.6513 95.9508 55.982 95.9294 56.3126C95.9081 56.6326 95.8974 56.9473 95.8974 57.2566V63.2246C95.8974 64.4406 95.5721 65.3686 94.9214 66.0086C94.2814 66.6486 93.3374 66.9686 92.0894 66.9686ZM91.9774 61.9286C92.6814 61.9286 93.2414 61.6886 93.6574 61.2086C94.0841 60.7286 94.2974 60.0513 94.2974 59.1766C94.2974 58.302 94.0841 57.63 93.6574 57.1606C93.2414 56.6913 92.6814 56.4566 91.9774 56.4566C91.2521 56.4566 90.6761 56.6913 90.2494 57.1606C89.8334 57.63 89.6254 58.302 89.6254 59.1766C89.6254 60.0513 89.8334 60.7286 90.2494 61.2086C90.6761 61.6886 91.2521 61.9286 91.9774 61.9286ZM101.982 63.5286C100.681 63.5286 99.657 63.1606 98.9103 62.4246C98.1636 61.6886 97.7903 60.67 97.7903 59.3686C97.7903 58.526 97.9503 57.79 98.2703 57.1606C98.601 56.5313 99.0543 56.046 99.6303 55.7046C100.217 55.3526 100.894 55.1766 101.662 55.1766C102.42 55.1766 103.054 55.3366 103.566 55.6566C104.078 55.9766 104.468 56.43 104.734 57.0166C105.001 57.5926 105.134 58.2753 105.134 59.0646V59.5766H99.0543V58.6486H104.03L103.758 58.8566C103.758 58.0566 103.577 57.438 103.214 57.0006C102.862 56.5526 102.35 56.3286 101.678 56.3286C100.932 56.3286 100.356 56.59 99.9503 57.1126C99.545 57.6246 99.3423 58.334 99.3423 59.2406V59.4006C99.3423 60.35 99.5716 61.0646 100.03 61.5446C100.5 62.0246 101.161 62.2646 102.014 62.2646C102.484 62.2646 102.921 62.2006 103.326 62.0726C103.742 61.934 104.137 61.71 104.51 61.4006L105.038 62.5046C104.665 62.8353 104.212 63.0913 103.678 63.2726C103.145 63.4433 102.58 63.5286 101.982 63.5286Z" fill="#0D0D0D" fill-opacity="0.4"/>
<g clip-path="url(#clip0_433_9226)">
<path d="M47.7324 12.1195C49.0203 12.1195 50.0644 11.0754 50.0644 9.78748C50.0644 8.49957 49.0203 7.4555 47.7324 7.4555C46.4445 7.4555 45.4004 8.49957 45.4004 9.78748C45.4004 11.0754 46.4445 12.1195 47.7324 12.1195Z" fill="#0D0D0D"/>
<path d="M54.2618 21.7582C54.7593 20.6388 57.3711 20.5766 58.6148 20.6699C58.6148 16.9388 59.9518 16.2236 60.6359 16.3169L58.1484 8.85454L51.4634 17.4051L49.7533 14.7622L42.7573 21.7582H54.2618Z" fill="#0D0D0D"/>
<path d="M67.9301 23.767H63.4216V19.2585C63.4216 18.7299 63.0174 18.3257 62.4888 18.3257C61.9603 18.3257 61.556 18.7299 61.556 19.2585V23.767H57.0475C56.519 23.767 56.1147 24.1712 56.1147 24.6998C56.1147 25.2284 56.519 25.6326 57.0475 25.6326H61.556V30.1411C61.556 30.6697 61.9603 31.0739 62.4888 31.0739C63.0174 31.0739 63.4216 30.6697 63.4216 30.1411V25.6326H67.9301C68.4587 25.6326 68.8629 25.2284 68.8629 24.6998C68.8629 24.1712 68.4587 23.767 67.9301 23.767Z" fill="#0D0D0D"/>
<path d="M62.5017 0.615356H43.5349C40.6121 0.615356 38.249 2.97843 38.249 5.90119V24.868C38.249 27.7907 40.6121 30.1538 43.5349 30.1538H46.1156H57.8688C58.1797 29.9983 58.3663 29.6874 58.3663 29.3454C58.3663 29.0345 58.2108 28.7857 57.9932 28.5992H45.9912H43.5349C41.4827 28.5992 39.8037 26.9201 39.8037 24.868V5.90119C39.8037 3.84904 41.4827 2.17001 43.5349 2.17001H62.5017C64.5538 2.17001 66.2328 3.84904 66.2328 5.90119V8.48191V20.3595C66.3883 20.6082 66.6992 20.7948 67.0102 20.7948C67.3211 20.7948 67.6009 20.6393 67.7875 20.3906V8.45082V5.90119C67.7875 2.97843 65.4244 0.615356 62.5017 0.615356Z" fill="#0D0D0D"/>
</g>
<defs>
<clipPath id="clip0_433_9226">
<rect width="32" height="30.7692" fill="white" transform="translate(37.625 0.615356)"/>
</clipPath>
</defs>
</svg>
