<svg width="24" height="24" viewBox="0 0 24 24" fill="none" xmlns="http://www.w3.org/2000/svg">
<path d="M8.5 9.2C8.5 7.267 10.067 5.7 12 5.7C13.933 5.7 15.5 7.267 15.5 9.2C15.5 11.133 13.933 12.7 12 12.7C10.067 12.7 8.5 11.133 8.5 9.2Z" fill="#59B96B"/>
<path fill-rule="evenodd" clip-rule="evenodd" d="M12 1.5C6.20101 1.5 1.5 6.20101 1.5 12C1.5 17.799 6.20101 22.5 12 22.5C17.799 22.5 22.5 17.799 22.5 12C22.5 6.20101 17.799 1.5 12 1.5ZM2.9 12C2.9 6.97421 6.97421 2.9 12 2.9C17.0258 2.9 21.1 6.97421 21.1 12C21.1 14.5894 20.0185 16.9262 18.2825 18.5833C18.0712 16.072 15.9659 14.1 13.4 14.1H10.6C8.03413 14.1 5.92883 16.072 5.71745 18.5833C3.98151 16.9262 2.9 14.5894 2.9 12Z" fill="#59B96B"/>
</svg>
