<svg xmlns="http://www.w3.org/2000/svg">
  <defs>
    <!-- w:11|h:11 -->
    <g id="plus-icon">
      <path fill-rule="evenodd" clip-rule="evenodd" d="M5.55874 4.61538V0H6.32797V4.61538H10.9434V5.38462H6.32797V10H5.55874V5.38462H0.943359V4.61538H5.55874Z"></path>
    </g>

    <!-- w:11|h:12 -->
    <g id="download-icon">
      <path fill-rule="evenodd" clip-rule="evenodd" d="M5.26582 7.56433V0.87793H6.06582V7.51224L7.78298 5.79509L8.34866 6.36077L5.67691 9.03253L2.79451 6.37185L3.33713 5.78401L5.26582 7.56433ZM1.26582 10.4779V5.67793H0.46582V11.2779H10.8658V5.67793H10.0658V10.4779H1.26582Z"></path>
    </g>

    <!-- w:13|h:16 -->
    <g id="svg-refresh-double">
      <path d="M9.86601 3.14258L9.13933 3.92756C10.6903 4.94449 11.5915 6.80769 11.2852 8.75507C11.0834 10.0387 10.3935 11.1669 9.3431 11.9318C8.42621 12.5995 7.33002 12.9207 6.21217 12.8568L6.40414 12.6553C6.40045 12.6551 6.39639 12.6557 6.3927 12.6555L7.11991 11.8925L6.44835 11.2516L5.00626 12.7656L5.00591 12.765L4.38367 13.4184L5.05487 14.0588L5.05522 14.0586L6.56864 15.5009L7.19141 14.8475L6.21129 13.9137C7.55264 13.9771 8.86475 13.5873 9.96534 12.786C11.2442 11.855 12.0837 10.4816 12.3296 8.91904C12.6919 6.61131 11.6626 4.40027 9.86601 3.14258Z"></path>
      <path d="M1.71491 7.24584C1.91675 5.96226 2.60662 4.83402 3.65701 4.06912C4.5739 3.40144 5.67009 3.08019 6.78794 3.14413L6.59597 3.34561C6.59967 3.34579 6.60372 3.34526 6.60742 3.34543L5.88021 4.1084L6.55176 4.74931L7.99385 3.23536L7.9942 3.23589L8.61644 2.58247L7.94524 1.94209L7.94489 1.94227L6.43147 0.5L5.8087 1.15341L6.78882 2.08722C5.44747 2.02381 4.13536 2.41357 3.03477 3.21493C1.75595 4.14591 0.916369 5.51931 0.670502 7.08187C0.30769 9.38978 1.33713 11.6008 3.13358 12.8585L3.86026 12.0735C2.30985 11.0563 1.40863 9.19323 1.71491 7.24584Z"></path>
    </g>

    <!-- w:10|h:10 -->
    <g id="svg-close">
      <path d="M8.06089 0.899697C8.30804 0.652555 8.70873 0.652555 8.95587 0.899696L9.67186 1.61568C9.919 1.86282 9.919 2.26352 9.67186 2.51066L2.51202 9.67049C2.26488 9.91764 1.86418 9.91764 1.61704 9.67049L0.901058 8.95451C0.653916 8.70737 0.653916 8.30667 0.901057 8.05953L8.06089 0.899697Z" />
      <path d="M9.67051 8.05968C9.91765 8.30682 9.91765 8.70751 9.67051 8.95465L8.95453 9.67064C8.70739 9.91778 8.30669 9.91778 8.05955 9.67064L0.899712 2.5108C0.65257 2.26366 0.65257 1.86296 0.899712 1.61582L1.6157 0.89984C1.86284 0.652698 2.26353 0.652698 2.51067 0.89984L9.67051 8.05968Z" />
    </g>

    <!-- w:10|h:8 -->
    <g id="svg-check">
      <path d="M1 3.5L3.94737 7L9 1" stroke-linecap="round" stroke-linejoin="round"/>
    </g>

    <!-- w:11|h:10 -->
    <g id="svg-edit">
      <path d="M4.09319 5V6.1875C4.09319 6.4061 4.26931 6.58333 4.48698 6.58333H5.66834C5.77371 6.58333 5.87486 6.54081 5.94907 6.46505L10.0477 2.27731C10.2708 2.0529 10.3938 1.75466 10.3938 1.4375C10.3938 1.12034 10.2708 0.822103 10.0477 0.597913C9.58662 0.134813 8.83749 0.134813 8.37949 0.595587L4.21086 4.71782C4.13549 4.79224 4.09319 4.89389 4.09319 5ZM4.88077 5.16583L8.93404 1.15762C9.08786 1.00339 9.33706 1.0032 9.49088 1.15782C9.56548 1.23243 9.60624 1.33179 9.60624 1.4375C9.60624 1.54321 9.56548 1.64257 9.48857 1.71968L5.50337 5.79167H4.88077V5.16583ZM10.3938 4.60417V7.77083C10.3938 8.86207 9.51047 9.75 8.42487 9.75H2.91182C1.82621 9.75 0.942871 8.86207 0.942871 7.77083V2.22917C0.942871 1.13793 1.82621 0.25 2.91182 0.25H6.06213C6.2798 0.25 6.45592 0.427234 6.45592 0.645833C6.45592 0.864432 6.2798 1.04167 6.06213 1.04167H2.91182C2.26037 1.04167 1.73045 1.57433 1.73045 2.22917V7.77083C1.73045 8.42567 2.26037 8.95833 2.91182 8.95833H8.42487C9.07632 8.95833 9.60624 8.42567 9.60624 7.77083V4.60417C9.60624 4.38557 9.78236 4.20833 10 4.20833C10.2177 4.20833 10.3938 4.38557 10.3938 4.60417Z"></path>
    </g>

    <!-- w:12|h:13 -->
    <g id="svg-recycle-bin">
      <path fill-rule="evenodd" clip-rule="evenodd" d="M4.4 1.3999C4.23431 1.3999 4.1 1.53422 4.1 1.6999V2.7999H7.9V1.6999C7.9 1.53422 7.76569 1.3999 7.6 1.3999H4.4ZM8.9 2.7999V1.6999C8.9 0.981932 8.31797 0.399902 7.6 0.399902H4.4C3.68203 0.399902 3.1 0.981932 3.1 1.6999V2.7999H0V3.7999H0.7V11.2999C0.7 12.0179 1.28203 12.5999 2 12.5999H10C10.718 12.5999 11.3 12.0179 11.3 11.2999V3.7999H12V2.7999H8.9ZM10.3 3.7999H1.7V11.2999C1.7 11.4656 1.83431 11.5999 2 11.5999H10C10.1657 11.5999 10.3 11.4656 10.3 11.2999V3.7999ZM5.5 10.0999V6.0999H6.5V10.0999H5.5ZM3.1 10.0999V7.6999H4.1V10.0999H3.1ZM7.9 10.0999V7.6999H8.9V10.0999H7.9Z"></path>
    </g>
  </defs>
</svg>